<svg width="17" height="17" viewBox="0 0 17 17" fill="none" xmlns="http://www.w3.org/2000/svg">
<path d="M13.889 16.6667H2.77779C2.04104 16.6667 1.33449 16.3741 0.813655 15.8531C0.29266 15.3323 0 14.6257 0 13.889V2.77779C0 2.04104 0.29266 1.33449 0.813655 0.813655C1.33449 0.29266 2.04104 0 2.77779 0H13.889C14.6257 0 15.3323 0.29266 15.8531 0.813655C16.3741 1.33449 16.6667 2.04104 16.6667 2.77779V13.889C16.6667 14.6257 16.3741 15.3323 15.8531 15.8531C15.3323 16.3741 14.6257 16.6667 13.889 16.6667ZM2.77779 1.85199C2.53225 1.85199 2.29664 1.94949 2.12303 2.12311C1.94941 2.29672 1.85191 2.53231 1.85191 2.77787V13.889C1.85191 14.1346 1.94941 14.3702 2.12303 14.5438C2.29664 14.7174 2.53223 14.8149 2.77779 14.8149H13.889C14.1345 14.8149 14.3701 14.7174 14.5437 14.5438C14.7173 14.3702 14.8148 14.1346 14.8148 13.889V2.77787C14.8148 2.53233 14.7173 2.29672 14.5437 2.12311C14.3701 1.94949 14.1345 1.85199 13.889 1.85199H2.77779Z" fill="white"/>
<path d="M11.1111 8.33356C10.9282 8.33356 10.7493 8.27946 10.5972 8.17793L8.3333 6.66689L6.06936 8.17622C5.88272 8.3007 5.65717 8.35324 5.43475 8.32395C5.21231 8.29465 5.008 8.18568 4.85998 8.01718C4.71195 7.84853 4.62995 7.63198 4.62964 7.4077V0.925917C4.62964 0.595126 4.80604 0.289446 5.0925 0.124048C5.37896 -0.0413494 5.73206 -0.0413494 6.01853 0.124048C6.305 0.289446 6.48139 0.595122 6.48139 0.925917V5.67792L7.8193 4.78538H7.81945C7.97152 4.68385 8.1504 4.62975 8.3333 4.62975C8.51621 4.62975 8.6951 4.68385 8.84716 4.78538L10.1852 5.67792V0.925917C10.1852 0.595126 10.3616 0.289446 10.6481 0.124048C10.9345 -0.0413494 11.2876 -0.0413494 11.5741 0.124048C11.8606 0.289446 12.037 0.595122 12.037 0.925917V7.4077C12.037 7.65323 11.9395 7.88869 11.7659 8.0623C11.5922 8.23607 11.3566 8.33356 11.1111 8.33356Z" fill="white"/>
<path d="M12.9632 13.889H10.1854C9.85465 13.889 9.54897 13.7125 9.38357 13.426C9.21817 13.1395 9.21817 12.7866 9.38357 12.5001C9.54897 12.2137 9.85464 12.0371 10.1854 12.0371H12.9632C13.294 12.0371 13.5997 12.2137 13.7651 12.5001C13.9305 12.7866 13.9305 13.1395 13.7651 13.426C13.5997 13.7125 13.294 13.889 12.9632 13.889Z" fill="white"/>
</svg>
