<svg width="21" height="15" viewBox="0 0 21 15" fill="none" xmlns="http://www.w3.org/2000/svg">
<path d="M15.0398 10.6018L12.8384 14.2644H15.0398L17.2409 10.6018L15.0398 6.93945H12.8384L15.0398 10.6018Z" fill="white"/>
<path d="M9.62036 6.93848L11.8216 10.6009L9.62036 14.2634H11.8216L14.023 10.6009L11.8216 6.93848H9.62036Z" fill="white"/>
<path d="M20.4596 10.6018L18.2583 6.93945H16.0569L18.2583 10.6018L16.0569 14.2644H18.2583L20.4596 10.6018Z" fill="white"/>
<path d="M8.90239 13.832L10.8444 10.6011L8.90239 7.37036L8.13952 6.10111H14.1863C13.6866 2.65129 10.7203 0 7.13207 0C3.19323 0 0 3.19302 0 7.13207C0 11.0709 3.19302 14.2641 7.13207 14.2641C7.69174 14.2641 8.23505 14.1968 8.75715 14.0746L8.90239 13.832ZM7.45666 8.3973C7.10386 8.57728 6.67711 8.44705 6.49712 8.09426L4.89076 4.67334C4.78741 4.47365 4.85971 4.22787 5.05489 4.11636C5.25023 4.00482 5.49869 4.06727 5.61807 4.25811L7.76388 7.42292C7.94421 7.77571 7.80945 8.21731 7.45666 8.3973Z" fill="white"/>
</svg>
