<svg width="18" height="18" viewBox="0 0 18 18" fill="none" xmlns="http://www.w3.org/2000/svg">
<mask id="mask0_1_2186" style="mask-type:luminance" maskUnits="userSpaceOnUse" x="0" y="0" width="18" height="18">
<path d="M18 0H0V18H18V0Z" fill="white"/>
</mask>
<g mask="url(#mask0_1_2186)">
<path d="M16.1539 9.91803H15.9784V7.82778H16.3007C16.3874 7.82778 16.4728 7.80777 16.5505 7.76931C16.6281 7.73085 16.6958 7.67498 16.7483 7.60605C16.8008 7.53713 16.8366 7.45701 16.8531 7.37194C16.8695 7.28688 16.866 7.19917 16.843 7.11565C16.3705 5.3981 15.3472 3.88315 13.9304 2.80344C12.5135 1.72373 10.7814 1.13898 9.00006 1.13898C7.2187 1.13898 5.48659 1.72373 4.06973 2.80344C2.65288 3.88315 1.62963 5.3981 1.15712 7.11565C1.13407 7.19917 1.13063 7.28688 1.14706 7.37194C1.16349 7.45701 1.19934 7.53713 1.25183 7.60605C1.30431 7.67498 1.37201 7.73085 1.44964 7.76931C1.52727 7.80777 1.61273 7.82778 1.69937 7.82778H2.02168V9.91803H1.84618C1.38161 9.91848 0.936193 10.1032 0.607691 10.4317C0.279189 10.7602 0.0944409 11.2056 0.0939941 11.6702V11.8952C0.0952737 12.2746 0.219781 12.6432 0.44876 12.9456C0.67774 13.2481 0.998792 13.4679 1.36356 13.572C1.28377 13.7686 1.24253 13.9786 1.24206 14.1908V15.1982C1.2425 15.64 1.41817 16.0636 1.73051 16.3761C2.04286 16.6885 2.46638 16.8643 2.90818 16.8649H15.3029C15.7447 16.8643 16.1682 16.6885 16.4805 16.3761C16.7929 16.0636 16.9685 15.64 16.969 15.1982V14.1908C16.9686 13.958 16.9187 13.7279 16.8227 13.5158C17.143 13.3833 17.4169 13.1588 17.6097 12.8708C17.8025 12.5828 17.9057 12.2441 17.9061 11.8975V11.6725C17.9063 11.2075 17.7218 10.7615 17.3932 10.4325C17.0647 10.1035 16.6189 9.91848 16.1539 9.91803ZM9.00006 2.26409C10.406 2.26769 11.7787 2.69247 12.9409 3.48364C14.1031 4.27481 15.0017 5.39607 15.5206 6.70278H2.47956C2.99846 5.39607 3.89698 4.27481 5.05922 3.48364C6.22146 2.69247 7.59409 2.26769 9.00006 2.26409ZM14.8534 7.82778V8.46228C14.7593 8.52082 14.6705 8.58744 14.5879 8.6614C14.5315 8.7278 14.4614 8.78114 14.3823 8.81772C14.3032 8.8543 14.2172 8.87324 14.1301 8.87324C14.0429 8.87324 13.9569 8.8543 13.8778 8.81772C13.7987 8.78114 13.7286 8.7278 13.6722 8.6614C13.5648 8.55044 13.4361 8.46221 13.2939 8.40195C13.1518 8.3417 12.9989 8.31065 12.8445 8.31065C12.69 8.31065 12.5372 8.3417 12.395 8.40195C12.2528 8.46221 12.1242 8.55044 12.0167 8.6614C11.9606 8.72766 11.8906 8.78089 11.8118 8.8174C11.733 8.85391 11.6471 8.87281 11.5603 8.87281C11.4734 8.87281 11.3876 8.85391 11.3088 8.8174C11.2299 8.78089 11.16 8.72766 11.1038 8.6614C10.9965 8.55039 10.8679 8.4621 10.7258 8.40181C10.5836 8.34151 10.4308 8.31044 10.2764 8.31044C10.122 8.31044 9.96912 8.34151 9.82697 8.40181C9.68482 8.4621 9.55625 8.55039 9.44893 8.6614C9.39296 8.72771 9.32319 8.781 9.2445 8.81755C9.1658 8.85411 9.08008 8.87305 8.99331 8.87305C8.90654 8.87305 8.82081 8.85411 8.74212 8.81755C8.66342 8.781 8.59365 8.72771 8.53768 8.6614C8.4306 8.55038 8.30224 8.46208 8.16026 8.40176C8.01829 8.34145 7.86562 8.31037 7.71137 8.31037C7.55712 8.31037 7.40445 8.34145 7.26248 8.40176C7.12051 8.46208 6.99214 8.55038 6.88506 8.6614C6.82919 8.72769 6.75952 8.78097 6.68092 8.81752C6.60232 8.85407 6.51668 8.873 6.42999 8.873C6.34331 8.873 6.25767 8.85407 6.17907 8.81752C6.10047 8.78097 6.0308 8.72769 5.97493 8.6614C5.8678 8.55036 5.73939 8.46205 5.59737 8.40173C5.45535 8.34141 5.30264 8.31033 5.14834 8.31033C4.99404 8.31033 4.84133 8.34141 4.69931 8.40173C4.55729 8.46205 4.42888 8.55036 4.32174 8.6614C4.26577 8.72771 4.19601 8.781 4.11731 8.81755C4.03862 8.85411 3.95289 8.87305 3.86612 8.87305C3.77935 8.87305 3.69362 8.85411 3.61493 8.81755C3.53623 8.781 3.46646 8.72771 3.41049 8.6614C3.3287 8.58793 3.2404 8.52204 3.14668 8.46453V7.82778H14.8534ZM3.14668 9.17385C3.34607 9.34632 3.60195 9.43942 3.86556 9.43541C4.01991 9.43499 4.17262 9.40372 4.31471 9.34345C4.45681 9.28317 4.58542 9.19509 4.69299 9.0844C4.74891 9.01811 4.81863 8.96483 4.89728 8.92828C4.97593 8.89172 5.06161 8.87279 5.14834 8.87279C5.23507 8.87279 5.32075 8.89172 5.3994 8.92828C5.47805 8.96483 5.54777 9.01811 5.60368 9.0844C5.71073 9.19549 5.83908 9.28386 5.98106 9.34422C6.12303 9.40458 6.27572 9.43569 6.42999 9.43569C6.58427 9.43569 6.73696 9.40458 6.87894 9.34422C7.02091 9.28386 7.14926 9.19549 7.25631 9.0844C7.31223 9.0182 7.38191 8.96501 7.46051 8.92852C7.5391 8.89202 7.62472 8.87311 7.71137 8.87311C7.79802 8.87311 7.88364 8.89202 7.96223 8.92852C8.04083 8.96501 8.11051 9.0182 8.16643 9.0844C8.27357 9.19544 8.40198 9.28375 8.544 9.34407C8.68601 9.40439 8.83873 9.43548 8.99303 9.43548C9.14732 9.43548 9.30004 9.40439 9.44206 9.34407C9.58407 9.28375 9.71248 9.19544 9.81962 9.0844C9.8758 9.01815 9.94574 8.96492 10.0246 8.92841C10.1034 8.8919 10.1892 8.87299 10.2761 8.87299C10.363 8.87299 10.4488 8.8919 10.5276 8.92841C10.6064 8.96492 10.6764 9.01815 10.7326 9.0844C10.8398 9.1954 10.9683 9.28367 11.1105 9.34396C11.2526 9.40425 11.4053 9.43532 11.5597 9.43532C11.7141 9.43532 11.8669 9.40425 12.009 9.34396C12.1511 9.28367 12.2796 9.1954 12.3869 9.0844C12.4432 9.01811 12.5133 8.96487 12.5923 8.92835C12.6712 8.89184 12.7572 8.87292 12.8442 8.87292C12.9312 8.87292 13.0171 8.89184 13.0961 8.92835C13.1751 8.96487 13.2452 9.01811 13.3015 9.0844C13.4088 9.19582 13.5375 9.28437 13.6799 9.34469C13.8223 9.40502 13.9754 9.43587 14.1301 9.43541C14.3957 9.44083 14.6537 9.34673 14.8534 9.17159V9.91803H14.6768C14.5622 9.918 14.4502 9.953 14.3561 10.0184C14.2619 10.0837 14.1899 10.1763 14.1497 10.2837C14.0749 10.4846 13.9407 10.6581 13.765 10.7811C13.5893 10.9041 13.3804 10.9707 13.1659 10.9722C12.9218 10.9708 12.686 10.8833 12.4999 10.7252C12.4407 10.6786 12.3729 10.6441 12.3002 10.624C12.278 10.6186 12.2555 10.6147 12.2327 10.6122C12.2027 10.6044 12.172 10.5991 12.1411 10.5964C12.1058 10.5965 12.0706 10.5997 12.0359 10.606C11.8855 10.6321 11.7308 10.6096 11.5941 10.5417C11.4574 10.4738 11.346 10.3641 11.2759 10.2285C11.2291 10.1351 11.1572 10.0566 11.0683 10.0018C10.9794 9.94693 10.877 9.91793 10.7725 9.91803H3.14668V9.17385ZM1.21899 11.6702C1.21914 11.5039 1.28527 11.3445 1.40286 11.2269C1.52045 11.1093 1.67989 11.0432 1.84618 11.043H10.4626C10.642 11.2727 10.8738 11.4561 11.1386 11.578C11.4034 11.6998 11.6935 11.7565 11.9847 11.7433C12.335 11.9751 12.7459 12.0982 13.1659 12.0972C13.5404 12.0954 13.9081 11.9976 14.2339 11.813C14.5598 11.6285 14.8327 11.3633 15.0267 11.043H16.1517C16.318 11.0432 16.4774 11.1093 16.595 11.2269C16.7126 11.3445 16.7787 11.5039 16.7789 11.6702V11.8952C16.7787 12.0616 16.7126 12.2211 16.595 12.3387C16.4775 12.4564 16.318 12.5227 16.1517 12.523H1.84618C1.67984 12.5227 1.5204 12.4564 1.40282 12.3387C1.28525 12.2211 1.21914 12.0616 1.21899 11.8952V11.6702ZM15.844 15.1943C15.8438 15.3378 15.7868 15.4754 15.6854 15.5769C15.5839 15.6785 15.4464 15.7357 15.3029 15.736H2.90818C2.76466 15.7357 2.62711 15.6785 2.52568 15.5769C2.42425 15.4754 2.36721 15.3378 2.36706 15.1943V14.1868C2.36721 14.0434 2.42426 13.9058 2.52571 13.8044C2.62716 13.7029 2.76471 13.6459 2.90818 13.6457H15.3029C15.4463 13.6459 15.5839 13.7029 15.6853 13.8044C15.7868 13.9058 15.8438 14.0434 15.844 14.1868V15.1943Z" fill="#D07E2B"/>
<path d="M11.4452 4.21876C11.5266 4.21876 11.6062 4.19461 11.674 4.14937C11.7417 4.10413 11.7944 4.03982 11.8256 3.96459C11.8568 3.88935 11.8649 3.80656 11.849 3.72669C11.8331 3.64682 11.7939 3.57345 11.7363 3.51586C11.6788 3.45828 11.6054 3.41906 11.5255 3.40318C11.4457 3.38729 11.3629 3.39544 11.2876 3.42661C11.2124 3.45777 11.1481 3.51055 11.1028 3.57826C11.0576 3.64597 11.0334 3.72558 11.0334 3.80702C11.0336 3.91617 11.077 4.02081 11.1542 4.098C11.2314 4.17519 11.336 4.21862 11.4452 4.21876Z" fill="#D07E2B"/>
<path d="M8.9994 3.39644C9.2268 3.39644 9.41115 3.21209 9.41115 2.98469C9.41115 2.75728 9.2268 2.57294 8.9994 2.57294C8.77199 2.57294 8.58765 2.75728 8.58765 2.98469C8.58765 3.21209 8.77199 3.39644 8.9994 3.39644Z" fill="#D07E2B"/>
<path d="M13.611 5.9648C13.8384 5.9648 14.0227 5.78045 14.0227 5.55305C14.0227 5.32564 13.8384 5.1413 13.611 5.1413C13.3836 5.1413 13.1992 5.32564 13.1992 5.55305C13.1992 5.78045 13.3836 5.9648 13.611 5.9648Z" fill="#D07E2B"/>
<path d="M6.66224 4.21876C6.74368 4.21876 6.82328 4.19461 6.891 4.14937C6.95871 4.10413 7.01148 4.03982 7.04265 3.96459C7.07381 3.88935 7.08196 3.80656 7.06608 3.72669C7.05019 3.64682 7.01097 3.57345 6.95339 3.51586C6.89581 3.45828 6.82244 3.41906 6.74257 3.40318C6.66269 3.38729 6.57991 3.39544 6.50467 3.42661C6.42943 3.45777 6.36512 3.51055 6.31988 3.57826C6.27464 3.64597 6.25049 3.72558 6.25049 3.80702C6.25064 3.91617 6.29407 4.02081 6.37125 4.098C6.44844 4.17519 6.55308 4.21862 6.66224 4.21876Z" fill="#D07E2B"/>
<path d="M9.10804 4.07147C9.02663 4.07147 8.94704 4.0956 8.87934 4.14082C8.81164 4.18604 8.75887 4.25032 8.72769 4.32552C8.69651 4.40073 8.68832 4.48349 8.70416 4.56334C8.72 4.6432 8.75916 4.71656 8.81669 4.77417C8.87422 4.83177 8.94753 4.87103 9.02737 4.88698C9.1072 4.90293 9.18997 4.89486 9.26522 4.86378C9.34047 4.83271 9.40481 4.78003 9.45012 4.71239C9.49543 4.64475 9.51968 4.56519 9.51979 4.48378C9.51979 4.37452 9.47643 4.26974 9.39923 4.19243C9.32202 4.11513 9.21729 4.07162 9.10804 4.07147Z" fill="#D07E2B"/>
<path d="M6.66224 5.9648C6.88964 5.9648 7.07399 5.78045 7.07399 5.55305C7.07399 5.32564 6.88964 5.1413 6.66224 5.1413C6.43484 5.1413 6.25049 5.32564 6.25049 5.55305C6.25049 5.78045 6.43484 5.9648 6.66224 5.9648Z" fill="#D07E2B"/>
<path d="M11.4452 5.9648C11.6726 5.9648 11.8569 5.78045 11.8569 5.55305C11.8569 5.32564 11.6726 5.1413 11.4452 5.1413C11.2178 5.1413 11.0334 5.32564 11.0334 5.55305C11.0334 5.78045 11.2178 5.9648 11.4452 5.9648Z" fill="#D07E2B"/>
<path d="M4.49622 5.9648C4.72363 5.9648 4.90797 5.78045 4.90797 5.55305C4.90797 5.32564 4.72363 5.1413 4.49622 5.1413C4.26882 5.1413 4.08447 5.32564 4.08447 5.55305C4.08447 5.78045 4.26882 5.9648 4.49622 5.9648Z" fill="#D07E2B"/>
</g>
</svg>
