<svg width="16" height="16" viewBox="0 0 16 16" fill="none" xmlns="http://www.w3.org/2000/svg">
<path fill-rule="evenodd" clip-rule="evenodd" d="M4.31354 1.33416L4.33129 1.3353C4.68055 1.36425 4.9839 1.53782 5.26081 1.80837C5.78704 2.32233 6.91703 3.82212 7.00234 4.23028C7.09676 4.68562 6.99581 4.98135 6.69486 5.5045L6.62191 5.63343C6.48381 5.88566 6.4627 5.98981 6.50546 6.10907C7.16255 7.71722 8.28384 8.83835 9.87362 9.48766C10.0242 9.54219 10.1379 9.51094 10.456 9.32841L10.6221 9.23449C11.0694 8.98915 11.3529 8.91161 11.7709 8.99868C12.1777 9.08391 13.6783 10.2146 14.1915 10.7402C14.4617 11.0168 14.6356 11.3207 14.6659 11.693C14.6978 12.5978 13.5938 13.8718 12.9203 14.2548C12.1544 14.8027 11.1824 14.7936 10.0926 14.2864C7.24264 13.1005 2.88325 8.76896 1.72151 5.92255L1.65196 5.76334C1.21083 4.709 1.22039 3.79811 1.72591 3.11139C2.18717 2.34752 3.43082 1.29333 4.31354 1.33416ZM4.25966 2.30899L4.20089 2.312C3.74783 2.37219 2.83927 3.15439 2.5367 3.6519L2.48443 3.72969C2.22377 4.15437 2.25398 4.73759 2.61688 5.53614L2.68623 5.69849C3.85658 8.32515 7.9088 12.3211 10.4855 13.3938L10.6274 13.4569C11.3729 13.7729 11.9372 13.7589 12.3942 13.4349L12.4279 13.4131C12.5693 13.3149 12.8953 13.0187 13.1465 12.7289C13.4992 12.3219 13.699 11.949 13.6925 11.7505C13.6855 11.6655 13.62 11.5511 13.4937 11.4218C13.1122 11.0311 11.7248 9.98573 11.5715 9.9536C11.4265 9.9234 11.3075 9.96399 10.9821 10.1512L10.8183 10.2432C10.3389 10.5017 10.0009 10.5712 9.52332 10.3979C7.67266 9.64252 6.3588 8.32886 5.59544 6.45955C5.41463 5.95974 5.51196 5.60612 5.82639 5.0581L5.90131 4.92629C6.04415 4.66838 6.07438 4.55895 6.04747 4.42914C6.01524 4.27497 4.97052 2.88835 4.57931 2.50626C4.44976 2.37969 4.33593 2.31456 4.25074 2.3075L4.25966 2.30899Z" fill="white"/>
</svg>
