<svg width="16" height="12" viewBox="0 0 16 12" fill="none" xmlns="http://www.w3.org/2000/svg">
<path fill-rule="evenodd" clip-rule="evenodd" d="M11.3083 3.17216H13.4292L15.55 5.99999V9.53477H14.1361C14.1361 10.7048 13.1853 11.6556 12.0153 11.6556C10.8453 11.6556 9.89442 10.7048 9.89442 9.53477H5.6527C5.6527 10.7048 4.70186 11.6556 3.53184 11.6556C2.36183 11.6556 1.41099 10.7048 1.41099 9.53477H-0.00292969V1.75828C-0.00292969 0.977072 0.629782 0.34436 1.41099 0.34436H11.3083V3.17216ZM2.47162 9.53491C2.47162 10.1217 2.94527 10.5953 3.53205 10.5953C4.1188 10.5953 4.59248 10.1217 4.59248 9.53491C4.59248 8.94813 4.11883 8.47448 3.53205 8.47448C2.94527 8.47448 2.47162 8.94813 2.47162 9.53491ZM12.0154 10.5953C11.4287 10.5953 10.955 10.1217 10.955 9.53491C10.955 8.94813 11.4287 8.47448 12.0154 8.47448C12.6022 8.47448 13.0759 8.94813 13.0759 9.53491C13.0759 10.1217 12.6022 10.5953 12.0154 10.5953ZM11.3085 4.23278V6.00015H14.465L13.0759 4.23278H11.3085Z" fill="#D07E2B"/>
</svg>
