<svg width="19" height="19" viewBox="0 0 19 19" fill="none" xmlns="http://www.w3.org/2000/svg">
<path d="M8.23082 10.5031L11.8654 6.86853M15.5835 4.65039L12.5155 14.6213C12.2405 15.5149 12.103 15.9619 11.8658 16.1101C11.6601 16.2386 11.4055 16.2601 11.1815 16.1671C10.9231 16.0599 10.7135 15.6414 10.2953 14.8049L8.35204 10.9185C8.28567 10.7857 8.25245 10.7196 8.20812 10.6621C8.16878 10.6111 8.12338 10.5651 8.07234 10.5258C8.01613 10.4824 7.95115 10.4499 7.82433 10.3865L3.92894 8.43884C3.09246 8.0206 2.67419 7.81129 2.567 7.55298C2.47405 7.32896 2.49525 7.07406 2.62377 6.86837C2.77196 6.63119 3.21892 6.49341 4.11278 6.21837L14.0837 3.15039C14.7864 2.93417 15.1379 2.82615 15.3753 2.91328C15.5821 2.98919 15.745 3.15202 15.8209 3.35877C15.908 3.59601 15.7999 3.94734 15.5839 4.64935L15.5835 4.65039Z" stroke="#D0A65A" stroke-width="2" stroke-linecap="round" stroke-linejoin="round"/>
</svg>
