<svg width="21" height="20" viewBox="0 0 21 20" fill="none" xmlns="http://www.w3.org/2000/svg">
<path d="M20.9151 7.41869C20.7002 7.14776 20.4405 6.91581 20.1962 6.66907C19.9862 6.4573 19.7712 6.2509 19.5549 6.04383C19.1097 5.61893 18.6757 5.18395 18.2669 4.72678C18.0667 4.50492 17.8742 4.27903 17.6656 4.06591C17.4626 3.85682 17.2554 3.65244 17.0552 3.44066C16.6198 2.98484 16.1879 2.52431 15.7427 2.07521C15.4088 1.73906 15.0756 1.40022 14.7403 1.06406C14.7109 1.03448 14.6724 1.01969 14.6381 0.998178C14.6115 0.881197 14.5639 0.768922 14.4743 0.683539C14.3455 0.559835 14.1789 0.5 14.0123 0.5C13.8415 0.5 13.6693 0.563197 13.5363 0.683539C13.0421 1.13264 12.5584 1.5925 12.0635 2.0416C11.593 2.4712 11.1317 2.90551 10.6347 3.30822C10.1503 3.69883 9.68972 4.12104 9.24031 4.54728C8.78741 4.97486 8.3212 5.39035 7.8613 5.81054C7.15849 6.4499 6.46478 7.098 5.76477 7.74207C5.45186 8.02982 5.13266 8.31421 4.80926 8.59187C4.45225 8.89978 4.12115 9.22854 3.77744 9.54923C3.58284 9.72941 3.55064 10.0104 3.66124 10.2357C3.66194 10.391 3.72284 10.5463 3.84044 10.6686C3.95455 10.7869 4.07495 10.8999 4.18975 11.0182C3.90065 11.3409 3.61434 11.6663 3.30984 11.9769C3.14954 12.1423 2.98363 12.3003 2.82333 12.4657C2.67073 12.6223 2.51883 12.7803 2.35852 12.9329C2.04212 13.2335 1.72782 13.5373 1.41211 13.8392C1.12231 14.1142 0.840205 14.3925 0.518201 14.6352C0.4447 14.7072 0.393599 14.7919 0.364199 14.8894C0.351599 14.9337 0.355799 14.9794 0.354399 15.0245C0.290698 15.052 0.228397 15.087 0.175896 15.1374C-0.0537065 15.3573 -0.0635066 15.7418 0.175896 15.959C0.777204 16.5083 1.37221 17.0616 1.94762 17.6364C2.43063 18.1171 2.86953 18.6442 3.30004 19.1699C3.31124 19.1847 3.32174 19.2002 3.33294 19.215C3.42254 19.342 3.53104 19.4382 3.68994 19.4805C3.84464 19.5202 4.01335 19.4987 4.15125 19.4214C4.20305 19.3925 4.24575 19.3481 4.28635 19.3037C4.50755 19.2943 4.72946 19.2909 4.95136 19.2862C5.28386 19.2802 5.61707 19.2748 5.95097 19.2735C6.72728 19.2694 7.50359 19.2862 8.2799 19.2977C8.55641 19.301 8.78671 19.1161 8.87001 18.8754C8.88961 18.8613 8.90991 18.8533 8.93021 18.8378C9.06251 18.7376 9.16121 18.6005 9.26971 18.4781C9.39152 18.341 9.52382 18.2139 9.65332 18.0841C9.94592 17.7903 10.2357 17.4939 10.5101 17.1846C10.5318 17.1597 10.5437 17.1328 10.5626 17.1073C10.6627 17.1893 10.7565 17.2774 10.8601 17.3567C10.998 17.4609 11.1247 17.5349 11.3067 17.5349C11.474 17.5349 11.6357 17.4697 11.7533 17.3567C11.8114 17.3009 11.8569 17.2344 11.8877 17.1624C12.0922 17.0959 12.2483 16.9345 12.3981 16.7906C12.4982 16.6945 12.5962 16.597 12.6935 16.4982C12.9035 16.2851 13.1212 16.0773 13.3326 15.8669C13.7617 15.4433 14.1894 15.0198 14.6129 14.5908C15.4977 13.696 16.3531 12.775 17.2498 11.8902C17.5249 11.6193 17.7965 11.347 18.0541 11.0599C18.3229 10.7574 18.5847 10.4501 18.8815 10.1731C19.1699 9.90353 19.4723 9.64806 19.7678 9.38519C20.0954 9.09408 20.416 8.7949 20.7324 8.49035C20.8717 8.35656 20.9277 8.17437 20.9137 7.99553C20.9361 7.95587 20.9641 7.91889 20.9767 7.87519C21.0166 7.73804 21.011 7.53769 20.9151 7.41869ZM8.76641 17.2344C8.64181 17.3681 8.51791 17.5026 8.3933 17.6364C8.2813 17.7574 8.1756 17.8865 8.0419 17.9867C8.0104 18.0109 7.9943 18.0525 7.9712 18.0868C7.9509 18.0868 7.9299 18.0868 7.9096 18.0868C7.61139 18.0868 7.31459 18.0889 7.01709 18.0909C6.66988 18.0936 6.32338 18.0962 5.97757 18.0949C5.64227 18.0936 5.30696 18.1003 4.97236 18.1131C4.64475 18.1245 4.31225 18.1104 3.98605 18.1373C3.96995 18.1386 3.95665 18.1447 3.94125 18.146C3.93425 18.1386 3.92795 18.1305 3.92095 18.1225C3.79914 17.9867 3.67804 17.8482 3.55764 17.7117C3.30914 17.4334 3.05783 17.1584 2.80373 16.8854C2.34172 16.3899 1.85452 15.916 1.36101 15.4501C1.50591 15.3438 1.65292 15.2396 1.78312 15.1166C1.93152 14.9768 2.07992 14.8369 2.22832 14.6984C2.55033 14.3979 2.86183 14.09 3.17474 13.7821C3.49534 13.4688 3.80404 13.1454 4.12465 12.8321C4.44035 12.5195 4.74346 12.1968 5.04446 11.8714C5.56807 12.3938 6.08677 12.9215 6.61458 13.4405C7.04859 13.8668 7.46719 14.3044 7.9159 14.7152C8.3639 15.1247 8.81261 15.5327 9.25221 15.9523C9.37542 16.0699 9.50422 16.1822 9.63092 16.2958C9.62322 16.3032 9.61062 16.3059 9.60362 16.3133C9.33062 16.6252 9.04991 16.9305 8.76641 17.2344ZM18.3012 9.01408C18.0737 9.21711 17.8511 9.42485 17.6355 9.64066C17.4073 9.86925 17.1973 10.1153 16.9782 10.3506C16.54 10.8253 16.0696 11.271 15.6202 11.7342C15.1687 12.1974 14.7277 12.6701 14.2811 13.138C13.7904 13.6537 13.2962 14.1659 12.7936 14.6715C12.3365 15.13 11.8891 15.604 11.4012 16.0336C11.3487 16.0518 11.306 16.0861 11.2626 16.1183C10.8986 15.8292 10.5465 15.5267 10.2021 15.2188C9.75342 14.8194 9.31452 14.4087 8.86861 14.0059C8.4038 13.5851 7.9642 13.1407 7.52179 12.7003C7.09549 12.2781 6.66498 11.8599 6.25198 11.427C5.83057 10.9846 5.41336 10.5389 4.99406 10.0938C5.72837 9.37914 6.48298 8.68397 7.23689 7.98814C8.1392 7.15515 9.06111 6.34032 9.96692 5.51002C10.3274 5.18126 10.69 4.85519 11.0589 4.5345C11.4278 4.21516 11.8177 3.91867 12.1853 3.6C12.7873 3.0756 13.3858 2.54717 13.9822 2.01672C14.8768 2.89879 15.7931 3.7627 16.6653 4.6656C17.0783 5.09521 17.45 5.5591 17.8637 5.99005C18.2795 6.42234 18.7205 6.82976 19.1482 7.25062C19.3141 7.41399 19.4681 7.5861 19.6228 7.75821C19.1881 8.18176 18.7555 8.60868 18.3012 9.01408ZM17.4556 7.93032C17.6894 8.15487 17.6775 8.51052 17.4556 8.73641C17.2113 8.98517 16.9663 9.23056 16.7115 9.47057C16.2866 9.87126 15.8498 10.2572 15.4354 10.6679C15.2401 10.8629 15.0357 11.0491 14.8418 11.2468C14.6465 11.4458 14.4491 11.6461 14.2461 11.8398C13.824 12.2405 13.432 12.664 13.0288 13.0822C12.8363 13.2825 12.6424 13.4815 12.4485 13.6805C12.2882 13.8466 12.1167 14.0066 11.9647 14.1794C11.9626 14.1821 11.9612 14.1848 11.9591 14.1875C11.7988 14.4362 11.4621 14.5303 11.1933 14.3797C10.942 14.2386 10.8244 13.8883 10.9931 13.6442C11.0974 13.4916 11.2325 13.3646 11.3634 13.2335C11.4635 13.1319 11.565 13.0304 11.663 12.9282C12.0599 12.5175 12.4541 12.102 12.8391 11.6818C13.0316 11.4714 13.2416 11.2737 13.4474 11.0747C13.649 10.8784 13.8457 10.6794 14.0431 10.479C14.8901 9.61915 15.7749 8.79625 16.6156 7.93032C16.7241 7.81804 16.8753 7.76426 17.0272 7.76426C17.184 7.76426 17.3422 7.82141 17.4556 7.93032Z" fill="white"/>
</svg>
