<svg width="14" height="17" viewBox="0 0 14 17" fill="none" xmlns="http://www.w3.org/2000/svg">
<path d="M12.7483 2.42857H13.0124C13.1528 2.42835 13.2887 2.47926 13.3959 2.57223C13.5031 2.66519 13.5745 2.79417 13.5975 2.93614L13.992 5.36471C14.0061 5.45165 14.0015 5.5407 13.9787 5.62566C13.9558 5.71062 13.9152 5.78947 13.8597 5.85671C13.8041 5.92396 13.7349 5.978 13.6569 6.01508C13.5789 6.05216 13.494 6.07139 13.408 6.07143H12.4948L11.7723 16.4366C11.7615 16.5897 11.6945 16.7329 11.5849 16.8375C11.4752 16.942 11.331 17.0001 11.1812 17H2.81405C2.66409 17.0004 2.51957 16.9425 2.40966 16.8379C2.29974 16.7333 2.23261 16.5899 2.22181 16.4366L1.50165 6.07143H0.591967C0.505998 6.07139 0.421068 6.05216 0.343077 6.01508C0.265086 5.978 0.195905 5.92396 0.140338 5.85671C0.0847719 5.78947 0.0441528 5.71062 0.0213029 5.62566C-0.00154709 5.5407 -0.00608027 5.45165 0.00801868 5.36471L0.402451 2.93614C0.425474 2.79417 0.496947 2.66519 0.604119 2.57223C0.711291 2.47926 0.847193 2.42835 0.987583 2.42857H1.24698L1.12261 0.650857C1.11675 0.567629 1.12769 0.484056 1.15474 0.405355C1.1818 0.326654 1.22438 0.254514 1.27985 0.19344C1.33531 0.132365 1.40246 0.0836667 1.4771 0.0503844C1.55174 0.0171021 1.63227 -4.95737e-05 1.71367 1.07621e-07H12.2816C12.363 -4.95737e-05 12.4435 0.0171021 12.5182 0.0503844C12.5928 0.0836667 12.66 0.132365 12.7154 0.19344C12.7709 0.254514 12.8135 0.326654 12.8405 0.405355C12.8676 0.484056 12.8785 0.567629 12.8726 0.650857L12.7483 2.42857ZM11.5614 2.42857L11.6455 1.21429H2.34973L2.43383 2.42857H11.5614ZM1.41636 4.85714H12.7092L12.5114 3.64286H1.48862L1.29081 4.85714H1.41636ZM2.6885 6.07143L3.36483 15.7857H10.6304L11.3068 6.07143H2.6885Z" fill="#D07E2B"/>
</svg>
