<svg width="39" height="30" viewBox="0 0 39 30" fill="none" xmlns="http://www.w3.org/2000/svg">
<path opacity="0.4" fill-rule="evenodd" clip-rule="evenodd" d="M14.5006 6.35192H24.2015V4.56415H14.5006V6.35192ZM12.2938 4.63757V4.64647C11.5365 4.70098 10.7874 4.82001 10.0585 4.99912V4.99245C10.0369 4.99966 10.0165 5.00521 9.99689 5.01054C9.97118 5.01753 9.9469 5.02414 9.92306 5.03361C9.86481 5.04474 9.80791 5.06142 9.75372 5.08256C9.59387 5.12372 9.43402 5.17267 9.28365 5.22274C9.24368 5.23497 9.20372 5.24916 9.16375 5.26334L9.16374 5.26335C9.12379 5.27753 9.08383 5.29171 9.04387 5.30395C8.989 5.32453 8.93177 5.34706 8.87453 5.36958L8.87451 5.36959C8.81728 5.39212 8.76005 5.41464 8.70519 5.43522L8.43426 5.55871C8.38416 5.57893 8.33779 5.60265 8.29047 5.62685C8.2623 5.64126 8.23379 5.65584 8.20396 5.66996C7.7962 5.87799 7.41824 6.12163 7.07686 6.39864L7.05654 6.41532C7.01171 6.45669 6.96706 6.49683 6.92302 6.53642L6.92301 6.53643L6.923 6.53644C6.84861 6.60332 6.77595 6.66864 6.70703 6.73572L6.68671 6.7513C5.57857 7.96169 5.02315 9.45354 5.11933 10.9654V11.4449H7.30715V10.961C7.30715 8.8539 8.15519 7.54228 10.0423 6.87033C10.763 6.62892 11.5243 6.47985 12.2992 6.42534H12.3195V4.64535L12.2938 4.63757ZM31.953 6.72905L31.9625 6.74462C33.0693 7.95613 33.622 9.44909 33.5244 10.961V11.4449H31.338V10.9487C31.384 10.0565 31.1578 9.16874 30.6782 8.36663C30.2177 7.68023 29.4807 7.14734 28.5907 6.8581C27.8822 6.61669 27.1317 6.4665 26.3663 6.4131V4.64202C27.1235 4.69764 27.8727 4.81556 28.6029 4.99468V4.98578C28.6439 5.00051 28.6752 5.00927 28.7289 5.02431L28.7383 5.02694C28.7633 5.03392 28.7865 5.0409 28.8095 5.04779C28.8415 5.05739 28.873 5.06683 28.9077 5.07589C29.0574 5.11478 29.1975 5.16062 29.3416 5.20779L29.3669 5.21606C29.4334 5.23455 29.4961 5.25748 29.5525 5.27814C29.5708 5.28483 29.5884 5.29129 29.6053 5.29727C29.7245 5.33843 29.8465 5.38738 29.944 5.42855C30.0091 5.45526 30.0724 5.48386 30.1318 5.51067C30.164 5.52517 30.195 5.53915 30.2244 5.55203C30.273 5.57325 30.3152 5.59595 30.3557 5.61778C30.3854 5.63372 30.4141 5.64919 30.4439 5.66328C30.853 5.87243 31.235 6.11718 31.5805 6.39196L31.5927 6.40865C31.72 6.50989 31.8406 6.61669 31.953 6.72905Z" fill="#D07E2B"/>
<path d="M26.4287 3.39616V7.33558C26.4287 7.83193 25.9199 8.23396 25.2917 8.23396C24.6634 8.23396 24.1546 7.83193 24.1546 7.33558V3.40514C24.1489 2.90879 24.6549 2.50339 25.2831 2.50002C25.9114 2.49665 26.4245 2.89531 26.4287 3.39167V3.39616Z" fill="#D07E2B"/>
<path d="M14.4895 3.41043V7.34011C14.4895 7.83862 13.98 8.24281 13.3517 8.24281C12.7234 8.24281 12.2153 7.83862 12.2153 7.34011V3.41043C12.2153 2.91192 12.7234 2.50885 13.3517 2.50885C13.98 2.50885 14.4895 2.91192 14.4895 3.41043Z" fill="#D07E2B"/>
<path fill-rule="evenodd" clip-rule="evenodd" d="M5.10864 21.1377V11.4449H33.5355V21.1377C33.5355 25.3645 30.5532 27.5 24.6428 27.5H13.9878C8.09095 27.5 5.10864 25.3645 5.10864 21.1377ZM11.5206 16.8335C11.5206 17.4199 12.1035 17.8957 12.822 17.8957C13.554 17.8957 14.1369 17.4088 14.1234 16.8224C14.1234 16.236 13.5405 15.7602 12.8356 15.7602H12.822C12.1035 15.7602 11.5206 16.247 11.5206 16.8335ZM18.0139 16.8335C18.0139 17.4199 18.6104 17.8957 19.3289 17.8957C20.0473 17.8957 20.6302 17.4199 20.6302 16.8224C20.6302 16.247 20.0473 15.7712 19.3289 15.7602H19.3153C18.5968 15.7712 18.0139 16.247 18.0139 16.8335ZM25.8222 17.8957C25.1037 17.8957 24.5208 17.4199 24.5208 16.8335C24.5208 16.247 25.0901 15.7712 25.8222 15.7712C26.5406 15.7712 27.1235 16.247 27.1235 16.8335C27.1235 17.4199 26.5406 17.8957 25.8222 17.8957ZM25.8222 22.4323C25.1037 22.4323 24.5208 21.9565 24.5072 21.37C24.5072 20.7836 25.0901 20.3078 25.8086 20.3078H25.8222C26.5406 20.3078 27.1235 20.7836 27.1235 21.37C27.1235 21.9565 26.5406 22.4323 25.8222 22.4323ZM19.3289 22.4323C18.6104 22.4323 18.0139 21.9565 18.0139 21.3701C18.0139 20.7836 18.5968 20.3078 19.3153 20.2968H19.3289C20.0473 20.3078 20.6167 20.7836 20.6302 21.359C20.6302 21.9565 20.0473 22.4323 19.3289 22.4323ZM12.822 22.4323C12.1035 22.4323 11.5206 21.9565 11.5206 21.3701C11.5071 20.7836 12.09 20.2968 12.822 20.2968C13.5404 20.2968 14.1234 20.7725 14.1234 21.359C14.1234 21.9454 13.5404 22.4323 12.822 22.4323Z" fill="#D07E2B"/>
</svg>
