<svg width="16" height="20" viewBox="0 0 16 20" fill="none" xmlns="http://www.w3.org/2000/svg">
<path fill-rule="evenodd" clip-rule="evenodd" d="M10.8444 4.65385C10.8444 6.03018 9.69031 7.14616 8.26659 7.14616C7.95012 7.14616 7.6467 7.0909 7.36648 6.99002L8.90451 8.76208C10.9748 8.46426 12.5629 6.73837 12.5629 4.65385C12.5629 2.35978 10.6393 0.5 8.26659 0.5C6.3716 0.5 4.76316 1.68605 4.19222 3.3324L5.73103 5.1056C5.70342 4.9591 5.68884 4.80797 5.68884 4.65387C5.68884 3.27735 6.8431 2.16156 8.26662 2.16156C9.69034 2.16156 10.8444 3.27734 10.8444 4.65385ZM5.71189 10.5789L0.20329 4.28167C-0.104163 3.93045 -0.0575571 3.40452 0.307054 3.10876C0.669554 2.81466 1.20967 2.85935 1.51537 3.20872L14.5702 18.1327C14.8775 18.4841 14.8311 19.0098 14.4665 19.3056C14.104 19.5997 13.5637 19.5552 13.2582 19.2056L11.9363 17.6947C11.3927 17.8582 10.8146 17.9463 10.2154 17.9463H6.3173C3.12271 17.9463 0.533246 15.4425 0.533246 12.354C0.533246 12.028 0.709896 11.7287 1.01965 11.6C1.73259 11.3041 3.25029 10.8004 5.71199 10.5792L5.71189 10.5789ZM10.6809 16.259C10.5284 16.2759 10.373 16.2846 10.2158 16.2846H6.31761C4.26726 16.2846 2.57138 14.8172 2.29214 12.9092C3.17134 12.6236 4.7347 12.2507 7.0902 12.1543L10.6809 16.259ZM10.4551 10.5485L12.0668 12.4057C13.0246 12.5574 13.7427 12.7475 14.2412 12.9091C14.1666 13.4195 13.9905 13.8983 13.7333 14.3259L14.8859 15.6539C15.5865 14.7289 16 13.5879 16 12.3536C16 12.0276 15.8232 11.7283 15.5136 11.5996C14.7659 11.2893 13.1333 10.7504 10.4553 10.5485L10.4551 10.5485Z" fill="white"/>
</svg>
