<svg width="20" height="23" viewBox="0 0 20 23" fill="none" xmlns="http://www.w3.org/2000/svg">
<path d="M6.08335 19.4672C6.56044 19.4672 6.96601 19.0617 6.96601 18.5846V5.89267C6.96601 5.41558 6.56046 5.01001 6.08335 5.01001C5.60623 5.01001 5.20068 5.41556 5.20068 5.89267V18.5846C5.20068 19.0617 5.58243 19.4672 6.08335 19.4672Z" fill="#D07E2B"/>
<path d="M9.51889 19.4672C9.99599 19.4672 10.4016 19.0617 10.4016 18.5846V5.89267C10.4016 5.41558 9.99601 5.01001 9.51889 5.01001C9.04178 5.01001 8.63623 5.41556 8.63623 5.89267V18.5846C8.63623 19.0617 9.04178 19.4672 9.51889 19.4672Z" fill="#D07E2B"/>
<path d="M12.9542 19.4672C13.4313 19.4672 13.8369 19.0617 13.8369 18.5846V5.89267C13.8369 5.41558 13.4313 5.01001 12.9542 5.01001C12.4771 5.01001 12.0715 5.41556 12.0715 5.89267V18.5846C12.0715 19.0617 12.4771 19.4672 12.9542 19.4672Z" fill="#D07E2B"/>
<path d="M18.155 1.69392H13.0497L12.1192 0.381749C11.9522 0.143112 11.6659 0 11.3797 0H7.68185C7.39562 0 7.10924 0.143116 6.94233 0.381749L6.01191 1.69392H0.882665C0.405568 1.69392 0 2.09947 0 2.57659C0 3.05371 0.405547 3.45925 0.882665 3.45925H1.57443V20.517C1.57443 21.686 2.52862 22.664 3.72147 22.664H15.3398C16.5088 22.664 17.4868 21.7098 17.4868 20.517L17.487 3.45925H18.1788C18.6559 3.45925 19.0614 3.05371 19.0614 2.57659C19.0616 2.09949 18.6323 1.69392 18.155 1.69392H18.155ZM15.6978 20.517C15.6978 20.7317 15.5307 20.8988 15.316 20.8988L3.72156 20.8986C3.50689 20.8986 3.33981 20.7316 3.33981 20.5169V3.45917H15.6977L15.6978 20.517Z" fill="#D07E2B"/>
</svg>
