<svg width="12" height="27" viewBox="0 0 12 27" fill="none" xmlns="http://www.w3.org/2000/svg">
<path d="M0 7.78394H0.952776V9.22171H10.4804V7.78394H11.4332V10.1802H0V7.78394ZM1.38549 0V3.86197H1.40327L1.71453 3.34525L2.59494 2.05762H4.22237L2.66607 3.79193L4.44468 6.34057H2.78169L1.7234 4.58016L1.38549 5.00057V6.34057H0.0627321V0H1.38549ZM4.86795 6.34057V3.42407L4.83239 2.05762H5.97959L6.03293 2.64187H6.05962C6.15084 2.49285 6.30435 2.34605 6.52014 2.20136C6.73589 2.05668 7.0318 1.97895 7.4078 1.96817C7.6964 1.97087 7.94381 2.03673 8.15 2.16574C8.35619 2.29474 8.50713 2.47073 8.60287 2.69369H8.62065C8.78788 2.46912 8.97301 2.29638 9.17604 2.17545C9.40211 2.0416 9.66655 1.9725 9.96938 1.96817C10.3933 1.96524 10.7406 2.11358 11.0112 2.41325C11.2818 2.71288 11.4217 3.18132 11.4307 3.8186V6.34057H10.1145V4.01123C10.1151 3.69837 10.0649 3.45719 9.96411 3.28771C9.86332 3.11824 9.70867 3.03252 9.5002 3.03052C9.34648 3.03397 9.21888 3.07958 9.1174 3.1673C9.01591 3.25505 8.94163 3.36414 8.89451 3.49457L8.85188 3.83609V6.34057H7.5357V3.93244C7.53664 3.66114 7.4845 3.44405 7.37928 3.28115C7.27407 3.11824 7.11006 3.0347 6.88726 3.03052C6.7096 3.03709 6.56728 3.0896 6.46035 3.1881C6.35345 3.28662 6.27962 3.39169 6.23891 3.50335C6.19781 3.6128 6.17955 3.72664 6.18412 3.84484V6.34057H4.86795Z" fill="white"/>
<path d="M6.26553 15.1753H3.71917C3.63476 15.1753 3.5538 15.2088 3.49411 15.2685C3.43441 15.3282 3.40088 15.4092 3.40088 15.4936C3.40088 15.578 3.43441 15.659 3.49411 15.7187C3.5538 15.7783 3.63476 15.8119 3.71917 15.8119H6.26553C6.34995 15.8119 6.43091 15.7783 6.4906 15.7187C6.55029 15.659 6.58382 15.578 6.58382 15.4936C6.58382 15.4092 6.55029 15.3282 6.4906 15.2685C6.43091 15.2088 6.34995 15.1753 6.26553 15.1753Z" fill="#D07E2B" fill-opacity="0.9"/>
<path d="M8.39811 15.4299C8.36936 15.3997 8.33479 15.3757 8.2965 15.3593C8.2582 15.3429 8.21697 15.3344 8.1753 15.3344C8.13364 15.3344 8.09241 15.3429 8.05411 15.3593C8.01581 15.3757 7.98124 15.3997 7.9525 15.4299L7.69786 15.6686V12.788C7.69786 12.7036 7.66433 12.6226 7.60463 12.563C7.54494 12.5033 7.46398 12.4697 7.37957 12.4697C7.29515 12.4697 7.21419 12.5033 7.1545 12.563C7.09481 12.6226 7.06127 12.7036 7.06127 12.788V16.4007C7.05257 16.4478 7.05686 16.4964 7.07369 16.5412C7.09051 16.5861 7.11923 16.6255 7.15676 16.6553C7.18551 16.6855 7.22007 16.7095 7.25837 16.7259C7.29667 16.7423 7.3379 16.7507 7.37957 16.7507C7.42123 16.7507 7.46246 16.7423 7.50076 16.7259C7.53906 16.7095 7.57363 16.6855 7.60237 16.6553L8.38219 15.8755C8.44174 15.8176 8.47663 15.7389 8.4796 15.6559C8.48256 15.5728 8.45337 15.4919 8.39811 15.4299Z" fill="#D07E2B" fill-opacity="0.9"/>
<path d="M6.26553 12.6289H3.71917C3.63476 12.6289 3.5538 12.6624 3.49411 12.7221C3.43441 12.7818 3.40088 12.8628 3.40088 12.9472C3.40088 13.0316 3.43441 13.1126 3.49411 13.1723C3.5538 13.232 3.63476 13.2655 3.71917 13.2655H6.26553C6.34995 13.2655 6.43091 13.232 6.4906 13.1723C6.55029 13.1126 6.58382 13.0316 6.58382 12.9472C6.58382 12.8628 6.55029 12.7818 6.4906 12.7221C6.43091 12.6624 6.34995 12.6289 6.26553 12.6289Z" fill="#D07E2B" fill-opacity="0.9"/>
<path d="M3.71917 14.5389H5.94723C6.03165 14.5389 6.11261 14.5054 6.1723 14.4457C6.23199 14.386 6.26553 14.3051 6.26553 14.2206C6.26553 14.1362 6.23199 14.0553 6.1723 13.9956C6.11261 13.9359 6.03165 13.9023 5.94723 13.9023H3.71917C3.63476 13.9023 3.5538 13.9359 3.49411 13.9956C3.43441 14.0553 3.40088 14.1362 3.40088 14.2206C3.40088 14.3051 3.43441 14.386 3.49411 14.4457C3.5538 14.5054 3.63476 14.5389 3.71917 14.5389Z" fill="#D07E2B" fill-opacity="0.9"/>
<path d="M0.566895 24.5832H1.51967V26.0365H11.0473V24.5832H12.0001V26.0365V27.0054H0.566895V26.0365V24.5832ZM3.01992 23.1243V20.1763L2.98432 18.795H4.13152L4.1849 19.3856H4.21158C4.30281 19.235 4.45631 19.0866 4.6721 18.9403C4.88786 18.7941 5.18374 18.7155 5.55974 18.7046C5.84837 18.7074 6.09577 18.7739 6.30196 18.9043C6.50815 19.0348 6.6591 19.2126 6.75481 19.438H6.77259C6.93984 19.211 7.12497 19.0364 7.32797 18.9142C7.55405 18.7789 7.81851 18.709 8.12134 18.7046C8.5453 18.7017 8.8926 18.8516 9.16321 19.1545C9.43381 19.4574 9.57363 19.9309 9.58262 20.575V23.1243H8.26645V20.7698C8.267 20.4535 8.21687 20.2097 8.11608 20.0384C8.01526 19.8671 7.86064 19.7805 7.65216 19.7785C7.49841 19.7819 7.37081 19.828 7.26933 19.9167C7.16785 20.0054 7.09356 20.1157 7.04647 20.2475L7.00381 20.5927V23.1243H5.68764V20.6901C5.6886 20.4159 5.63646 20.1965 5.53125 20.0318C5.426 19.8671 5.26199 19.7827 5.03923 19.7785C4.86153 19.7851 4.71922 19.8382 4.61232 19.9377C4.50539 20.0373 4.43158 20.1435 4.39087 20.2564C4.34978 20.367 4.33151 20.4821 4.33609 20.6016V23.1243H3.01992Z" fill="white"/>
</svg>
