<svg width="17" height="17" viewBox="0 0 17 17" fill="none" xmlns="http://www.w3.org/2000/svg">
<path d="M15.5429 6.07143C14.7536 2.48929 11.5964 0 7.89286 0C3.52143 0 0 3.52143 0 7.89286C0 12.2643 3.52143 15.7857 7.89286 15.7857C7.95357 15.7857 8.075 15.7857 8.13571 15.725C8.37857 16.0286 8.62143 16.3929 8.925 16.6964C9.04643 16.8179 9.22857 16.8786 9.41071 16.8786C9.53214 16.8786 9.71429 16.8179 9.83572 16.7571C10.0786 16.5143 10.1393 16.15 9.89643 15.9071C8.56071 14.3893 7.52857 12.6286 6.8 10.7464C6.73929 10.625 6.8 10.5036 6.92143 10.4429C6.98214 10.3821 7.10357 10.3821 7.16429 10.3821C7.225 10.3821 7.28571 10.4429 7.34643 10.5036L8.68214 12.8714C8.80357 13.1143 9.10714 13.2357 9.35 13.175C9.59286 13.1143 9.775 12.8714 9.775 12.5679V6.67857C9.775 6.49643 9.89643 6.375 10.0786 6.375C10.2607 6.375 10.3214 6.49643 10.3214 6.67857V10.5643C10.3214 10.9286 10.5643 11.1714 10.9286 11.1714C11.2929 11.1714 11.5357 10.9286 11.5357 10.5643V6.67857V5.76786C11.5357 5.58571 11.6571 5.46429 11.8393 5.46429C12.0214 5.46429 12.1429 5.58571 12.1429 5.76786V6.67857V10.5643C12.1429 10.9286 12.3857 11.1714 12.75 11.1714C13.1143 11.1714 13.3571 10.9286 13.3571 10.5643V6.67857C13.3571 6.49643 13.4786 6.375 13.6607 6.375C13.8429 6.375 13.9643 6.49643 13.9643 6.67857V7.58929V10.625C13.9643 10.9893 14.2071 11.2321 14.5714 11.2321C14.9357 11.2321 15.1786 10.9893 15.1786 10.625V7.58929C15.1786 7.40714 15.3 7.28571 15.4821 7.28571C15.6643 7.28571 15.7857 7.40714 15.7857 7.58929V11.2321C15.7857 12.9321 15.4214 14.6321 14.7536 16.2107C14.6321 16.5143 14.7536 16.8786 15.0571 17C15.1786 17 15.2393 17 15.3 17C15.5429 17 15.7857 16.8786 15.8464 16.6357C16.575 14.875 17 13.0536 17 11.1714V7.52857C17 6.73929 16.3929 6.13214 15.5429 6.07143ZM8.5 6.67857V10.2607L8.25714 9.89643C8.075 9.53214 7.71071 9.28929 7.28571 9.16786C7.225 9.16786 7.225 9.16786 7.16429 9.16786C6.67857 8.925 6.43571 8.43929 6.43571 7.89286C6.43571 7.10357 7.10357 6.43571 7.89286 6.43571C8.075 6.43571 8.31786 6.49643 8.5 6.55714C8.5 6.55714 8.5 6.61786 8.5 6.67857ZM7.89286 3.64286C5.525 3.64286 3.64286 5.525 3.64286 7.89286C3.64286 8.25714 3.4 8.5 3.03571 8.5C2.67143 8.5 2.42857 8.25714 2.42857 7.89286C2.42857 4.85714 4.85714 2.42857 7.89286 2.42857C8.25714 2.42857 8.5 2.67143 8.5 3.03571C8.5 3.4 8.25714 3.64286 7.89286 3.64286Z" fill="#D07E2B"/>
</svg>
