<svg width="41" height="30" viewBox="0 0 41 30" fill="none" xmlns="http://www.w3.org/2000/svg">
<path fill-rule="evenodd" clip-rule="evenodd" d="M14.8037 3.67096C18.3874 2.08409 22.7924 2.11183 26.3424 3.74362C29.8576 5.40864 31.994 8.38022 31.9741 11.5768C31.8923 14.7524 29.6014 17.7375 26.7379 20.0451C25.0851 21.383 23.2362 22.566 21.2289 23.57C21.0222 23.6611 20.7957 23.7221 20.5607 23.75C20.3346 23.7427 20.1143 23.6917 19.9198 23.6018C16.8553 22.0932 14.1668 20.1675 11.9837 17.9175C10.1568 16.0392 9.11897 13.77 9.01099 11.418C9.00861 8.21531 11.22 5.25784 14.8037 3.67096ZM16.8746 12.7434C17.4774 13.876 18.9003 14.6147 20.4789 14.6147C21.5131 14.6204 22.5072 14.3047 23.2398 13.738C23.9724 13.1713 24.3825 12.4007 24.3788 11.5979C24.3844 10.3725 23.4377 9.26533 21.9808 8.79341C20.524 8.32148 18.8443 8.57788 17.7261 9.44287C16.6079 10.3079 16.2718 11.6108 16.8746 12.7434Z" fill="#D07E2B"/>
<path opacity="0.4" d="M20.4927 27.5C25.0221 27.5 28.6939 26.9404 28.6939 26.25C28.6939 25.5596 25.0221 25 20.4927 25C15.9633 25 12.2915 25.5596 12.2915 26.25C12.2915 26.9404 15.9633 27.5 20.4927 27.5Z" fill="#D07E2B"/>
</svg>
