<svg width="22" height="16" viewBox="0 0 22 16" fill="none" xmlns="http://www.w3.org/2000/svg">
<path d="M1.77484 15.9484C1.52498 15.7618 1.16147 15.6915 0.865791 15.552C0.42462 15.0885 0.163183 14.4782 0.129787 13.8338C0.161024 13.4019 0.233536 12.974 0.346285 12.5563C0.44949 12.4412 0.479916 12.2521 0.692559 12.248C0.582571 11.9495 0.364067 11.7601 0.30284 11.4111C0.123927 11.1818 0.109988 10.785 0 10.486V9.86906C0.0924211 9.74229 0.210515 9.6372 0.346285 9.56088C0.303207 9.07156 0.158202 8.29905 0.259574 7.75469C0.259574 7.75114 0.32887 7.6297 0.346285 7.57859C0.403831 7.41589 0.492069 7.26621 0.606038 7.13796C0.823997 7.0514 1.00199 6.92435 1.34185 6.96166C1.38752 6.68471 1.41648 6.40517 1.42856 6.12461C1.54442 5.94925 1.51545 5.62595 1.64487 5.46403C1.76604 4.9997 2.04284 4.69414 2.29416 4.36338C2.43447 4.29235 2.56542 4.2036 2.68389 4.09922C2.73075 4.10274 2.77782 4.09674 2.82237 4.08159C2.86693 4.06645 2.90809 4.04245 2.94346 4.01098H3.54949C3.65527 4.07773 3.77294 4.12262 3.89577 4.14306C3.93353 4.2076 3.96085 4.28279 4.069 4.27514C4.29408 4.54219 4.48332 4.83848 4.63177 5.15622C4.78594 5.12208 4.79474 4.94037 4.89153 4.84766C4.95129 4.71707 5.09134 4.66932 5.15128 4.53948C5.32176 4.4781 5.44459 4.36822 5.6279 4.31916H6.01744C6.22238 4.34565 6.31276 4.48874 6.45042 4.58351C6.60642 4.59545 6.56792 4.40927 6.71036 4.40722C6.72704 4.27756 6.91402 4.32102 6.97011 4.23111C7.22301 4.18773 7.48288 4.23437 7.70593 4.36319C7.80703 4.41684 7.89561 4.49198 7.96569 4.58351C8.09425 4.74171 8.19654 4.92022 8.26852 5.112C8.30257 5.2132 8.33145 5.31613 8.35504 5.42037C8.45309 5.87015 8.45309 6.33634 8.35504 6.78612C8.17979 6.87194 8.14606 7.10195 7.87843 7.0943C7.87146 7.04281 7.79942 7.05699 7.74864 7.05009C7.56973 6.91353 7.61519 6.59173 7.7052 6.38951C7.72848 6.07837 7.69921 5.76548 7.61867 5.4644C7.57871 5.30192 7.45644 4.9887 7.22894 4.93572C6.92629 4.90699 6.87736 5.13588 6.75234 5.28811C6.72979 5.5948 6.86232 5.83116 6.70907 6.03692C6.59812 6.07714 6.47989 6.09223 6.36262 6.08114C6.042 5.84944 6.21284 5.1176 5.886 4.89169C5.62936 4.95288 5.40517 5.0482 5.32322 5.28811C5.17474 5.44537 5.13313 5.71139 5.0204 5.90484C4.9896 6.25537 5.00555 6.65329 4.76064 6.78593C4.17551 6.79395 4.30584 6.07424 4.06808 5.72874C3.92253 5.2896 3.73263 4.89523 3.33227 4.7154C3.06518 4.7371 2.8168 4.86351 2.63953 5.06798C2.22983 5.67856 2.01626 6.48988 2.07694 7.57896C2.15815 7.81234 2.34036 8.10131 2.20673 8.41602C2.17828 8.41217 2.14942 8.41897 2.12554 8.43517C2.10166 8.45137 2.08439 8.47586 2.07694 8.50407C1.75156 8.54138 1.64469 8.35632 1.55761 8.15149C1.36312 8.05578 1.48429 7.63847 1.21116 7.6228C0.905209 7.60545 0.861031 7.85431 0.865064 8.15149V8.98854C0.893111 9.23889 0.955432 9.45492 0.994661 9.69333C1.0898 9.91981 1.48612 9.83922 1.42765 10.222C1.43296 10.3009 1.37449 10.3153 1.3842 10.3979C1.22545 10.5767 0.919687 10.5218 0.734908 10.3979C0.648751 10.5906 0.837743 10.8393 0.864874 11.0589C0.978528 11.2367 1.0317 11.4762 1.16771 11.6314C1.27285 11.8145 1.38847 11.9911 1.51399 12.1603C1.64341 12.3075 1.86814 12.3575 1.86026 12.6453C1.86228 12.7793 1.76861 12.8168 1.7303 12.9097C1.49089 13.033 1.29695 12.8554 1.12427 12.7774C0.920058 13.069 1.01666 13.6665 0.994482 14.1431C1.08233 14.4204 1.24801 14.6655 1.47109 14.8481C1.66287 14.872 1.85749 14.8484 2.03838 14.7793C2.21928 14.7102 2.38111 14.5977 2.51011 14.4513C2.64742 13.945 2.93778 13.5945 3.11614 13.1298C3.27029 12.9494 3.38795 12.7398 3.46241 12.5131C3.60911 12.3437 3.72623 12.1501 3.8087 11.9405C3.75014 11.8881 3.68115 11.8492 3.60647 11.8264C3.53178 11.8035 3.45314 11.7974 3.37589 11.8083C3.27049 11.8918 3.01367 11.8213 2.89928 11.8965C2.94621 12.201 3.35757 12.1347 3.33227 12.5121C3.31174 12.7998 3.06005 12.852 2.81276 12.9087C2.69288 12.8252 2.51946 12.7968 2.46667 12.6444C2.3136 12.6095 2.34402 12.3869 2.2069 12.3362C2.1078 12.035 2.03536 11.7254 1.99042 11.4111V10.9261C2.03352 10.5982 2.17865 10.293 2.40455 10.0552C2.63045 9.81742 2.92524 9.65948 3.24575 9.60453C3.32347 9.60584 3.4034 9.60453 3.48405 9.60453C3.69441 9.59119 3.90558 9.60618 4.11208 9.64912C4.06506 9.23988 4.05054 8.82744 4.06863 8.41583C4.0996 8.37983 4.12323 8.33791 4.13811 8.29253C4.153 8.24714 4.15886 8.1992 4.15534 8.15149C4.27835 8.07164 4.32161 7.90897 4.4151 7.79909C4.77879 7.47823 5.51497 7.22078 6.36297 7.31405C6.52467 7.34666 6.68394 7.39073 6.8396 7.44595C6.9301 7.46178 7.0177 7.4916 7.09935 7.53438C7.11768 7.54464 7.12758 7.61534 7.14261 7.62224C7.15633 7.62561 7.17067 7.62529 7.18422 7.62131C7.19891 7.61632 7.21484 7.61665 7.22931 7.62224C7.29366 7.66981 7.34096 7.79311 7.44581 7.84274C7.65608 7.70805 7.85843 7.561 8.05184 7.4023C8.24578 7.24709 8.47603 7.12919 8.65806 6.96166C8.88743 6.85284 9.10504 6.71998 9.30735 6.56524C9.54107 6.4507 9.80101 6.36264 9.95664 6.16863C9.85362 6.16713 9.75024 5.9429 9.65381 6.08058C9.55391 6.12572 9.51413 6.23243 9.35062 6.21266C8.80343 6.05036 8.62488 5.51216 8.65825 4.75887C8.68912 4.72282 8.71266 4.68088 8.72751 4.63551C8.74237 4.59014 8.74823 4.54221 8.74477 4.49451C8.89758 4.33652 9.09363 4.22907 9.30735 4.18615C9.19123 4.06666 9.08952 3.93352 9.00434 3.78954C8.8309 3.18949 8.75777 2.56404 8.78802 1.93933C8.81396 1.31895 9.0782 0.733733 9.52385 0.309613C9.77279 0.210554 9.95023 0.0387419 10.3031 0.0452712C10.3323 0.0469574 10.3613 0.039044 10.3858 0.0226981C10.4124 0.00468131 10.4446 -0.00299702 10.4763 0.00105865C10.6802 -0.000993413 10.8043 0.0782938 10.9957 0.0891137C11.1969 0.216552 11.3731 0.381032 11.5152 0.574143C11.6714 0.412368 11.8616 0.288692 12.0716 0.212381C12.2815 0.136069 12.5056 0.109102 12.7272 0.133508C12.8188 0.197086 12.9217 0.242004 13.0301 0.265776C13.1795 0.402014 13.2724 0.591044 13.2898 0.79446C13.582 0.709952 13.8286 0.578811 14.1989 0.57396C14.3787 0.609605 14.5533 0.668798 14.7182 0.750065C14.727 0.917961 14.9004 0.917957 14.8914 1.10246C14.9467 1.22722 14.9762 1.36222 14.9781 1.49907C15.3598 1.46325 15.6474 1.52295 15.7574 1.76341C15.9045 1.67594 16.066 1.61627 16.234 1.5873C17.4419 1.73841 18.256 2.29023 18.9612 2.95286C19.6411 3.6265 20.1344 4.49116 20.5628 5.42C20.8869 5.85373 21.2122 6.28634 21.5151 6.74172C21.5801 6.95697 21.6235 7.17834 21.6449 7.40248C21.9154 7.99407 22.0346 8.64568 21.9913 9.29672C22.0194 9.48682 21.9165 9.54353 21.8614 9.64893C21.9421 9.79644 21.9726 9.96698 21.9481 10.134C21.9194 10.1528 21.8963 10.179 21.881 10.21C21.8658 10.2411 21.859 10.2757 21.8614 10.3103C21.623 10.5086 21.1947 10.5127 20.8658 10.6184C20.7123 10.6913 20.5528 10.7502 20.3892 10.7945C20.2537 10.8772 20.0449 10.8847 19.9126 10.971C19.2094 11.1363 18.5881 11.3848 17.8778 11.5435C17.7647 11.6486 17.5454 11.6454 17.4012 11.7197C17.1986 11.7338 17.1046 11.8583 16.8817 11.8517C16.5992 12.0051 16.2298 12.0694 15.9293 12.2041C15.7189 12.2105 15.6588 12.3694 15.4527 12.3802C15.3644 12.5108 15.134 12.4963 15.0199 12.6005C14.635 12.6502 14.3464 12.7964 13.9809 12.8651C11.3493 13.6962 8.73156 14.5416 6.10267 15.3759C5.89773 15.4908 5.6849 15.5971 5.49646 15.7283C4.70751 15.9262 3.89623 16.0167 3.08387 15.9975C2.64246 15.9973 2.19792 15.9788 1.77484 15.9484ZM16.6659 5.42C15.0524 5.51802 13.4622 5.85953 11.9474 6.43334C11.2699 6.67624 10.6175 6.9861 9.99936 7.35846C9.68383 7.51134 9.37997 7.68799 9.09031 7.88695C8.78614 8.06897 8.49664 8.27526 8.22452 8.50388C7.67295 8.90346 7.15206 9.34518 6.66636 9.82522C6.18553 10.3052 5.7575 10.8389 5.32433 11.3674C5.16173 11.6864 4.90069 11.9053 4.76156 12.2482C4.53508 12.5141 4.34571 12.8106 4.19879 13.1292C4.11873 13.226 4.04639 13.3291 3.98248 13.4376C3.90237 13.5682 3.87121 13.6771 3.80925 13.7902C3.78468 13.835 3.74435 13.8435 3.72254 13.8782C3.68789 13.9342 3.71008 13.9982 3.67928 14.0543C3.56152 14.22 3.46008 14.3971 3.37644 14.583C3.37003 14.6088 3.38671 14.6468 3.37644 14.6713C3.36728 14.6925 3.30019 14.7325 3.28974 14.7591C3.24758 14.866 3.24977 14.9681 3.20321 15.0677C3.70989 15.0841 4.10328 14.9847 4.58833 14.9795C4.72598 14.9049 4.87115 14.8458 5.02131 14.8032C5.16204 14.7358 5.30657 14.677 5.45412 14.627C5.5416 14.4578 5.67749 14.3195 5.84384 14.2304C6.37964 14.0041 6.92911 13.8129 7.48889 13.6579C8.08704 13.5031 8.62341 13.2848 9.22028 13.1292C9.2047 13.0695 9.25566 13.0774 9.3068 13.0852C9.35795 13.093 9.40872 13.1011 9.39332 13.0412C9.41518 13.0478 9.43822 13.0492 9.46071 13.0454C9.4832 13.0416 9.50453 13.0326 9.52311 13.0192C9.54171 13.0057 9.56309 12.9967 9.58561 12.9929C9.60812 12.9891 9.6312 12.9905 9.65309 12.9972C9.78872 12.9279 9.93517 12.8832 10.0859 12.8651C10.3172 12.7186 10.6677 12.6936 10.9084 12.5565C11.5102 12.4054 12.0633 12.2049 12.6398 12.028C12.7962 11.8196 12.8288 11.4857 12.9863 11.279C13.0565 10.9686 13.1109 10.6419 13.4192 10.5742C13.5016 10.6414 13.5602 10.6606 13.5925 10.7945C13.6071 10.9284 13.5922 11.0639 13.549 11.1912C13.473 11.3926 13.4046 11.6016 13.3325 11.8079C13.4022 11.8109 13.4713 11.7951 13.5331 11.7622C13.6044 11.7237 13.6857 11.7088 13.7657 11.7197C13.8361 11.2188 14.0999 10.9147 14.1985 10.4423C14.3329 10.3 14.336 10.0239 14.415 9.82541C14.5221 9.64091 14.4859 9.31071 14.7178 9.25288H14.9345C15.3182 9.50081 14.9173 10.0319 14.8911 10.3981C14.7853 10.5401 14.7776 10.7819 14.6748 10.9268C14.6405 11.1565 14.4691 11.2464 14.4581 11.4995C14.6956 11.45 14.9277 11.3762 15.1506 11.2792C15.4322 10.5665 15.6495 9.82929 15.7999 9.07659C15.8122 8.64864 15.8205 8.2164 16.2329 8.19588C16.6512 8.23991 16.5794 8.78277 16.5792 9.25288C16.4697 9.87206 16.2956 10.4776 16.0597 11.0591C16.2996 11.046 16.5347 10.9862 16.7524 10.8828C16.9525 10.4942 17.0982 10.079 17.1852 9.6493C17.242 9.55689 17.272 9.4501 17.2719 9.34113C17.3137 9.21352 17.3285 9.07834 17.3152 8.94451C17.4125 8.75012 17.2732 8.31416 17.5751 8.3276C18.0677 8.32554 17.9546 8.93985 17.9645 9.42824C17.8839 9.82981 17.7829 10.2268 17.6617 10.6177C17.9832 10.578 18.2132 10.445 18.5273 10.3972C18.6556 10.0724 18.6882 9.65098 18.787 9.29654C18.7993 9.082 18.6497 8.83333 18.8737 8.76785C19.561 8.763 19.2689 9.60733 19.2633 10.1336C19.5191 10.1034 19.7679 10.0289 19.9991 9.91328C20.0849 9.7508 20.1404 9.55771 20.2156 9.38478C20.2647 9.17025 20.2368 8.87754 20.4321 8.81187C20.6887 8.84396 20.6727 9.1542 20.7783 9.34057C20.892 9.22136 20.8641 8.95814 20.865 8.72364C20.9204 8.58081 20.9637 8.43346 20.9947 8.28319C20.8116 7.61305 20.4348 7.01441 19.9131 6.56505C19.6986 6.31162 19.4509 6.0893 19.1771 5.90428C18.8891 5.72781 18.6501 5.50096 18.3117 5.3756C18.1124 5.38474 17.8994 5.37989 17.6864 5.3756C17.5619 5.3728 17.4375 5.37001 17.3157 5.37001C17.0981 5.36507 16.8804 5.38192 16.6659 5.42ZM3.03017 10.5298C2.82852 10.7065 2.7211 10.9792 2.77042 11.4111C2.94601 11.3996 3.12 11.37 3.28974 11.3229C3.38836 11.2178 3.19478 11.1607 3.24648 10.9708C3.1572 10.8854 3.16398 10.7022 3.11669 10.574C3.11309 10.5596 3.10445 10.547 3.09237 10.5386C3.08028 10.5302 3.0656 10.5265 3.05107 10.5283C3.04408 10.5284 3.03709 10.5289 3.03017 10.5298ZM3.59294 10.3537V10.486C3.74674 10.8287 3.76965 11.3048 4.19787 11.3671C4.32314 11.239 4.42571 11.0899 4.50107 10.9263C4.29631 10.669 4.15278 10.3479 3.69614 10.3479C3.66406 10.3485 3.62942 10.3502 3.59294 10.3537ZM5.45412 8.01903C5.41031 8.09197 5.2708 8.0668 5.19418 8.10709C5.1368 8.1804 5.00188 8.17537 4.9346 8.23935C4.82893 8.3736 4.74156 8.52175 4.67485 8.67979V9.64893C4.71832 9.79134 4.73304 9.94122 4.71811 10.0896C4.81215 10.1554 4.78722 10.3422 4.9346 10.3537C5.10105 10.1873 5.25192 9.99928 5.41122 9.82504C5.7575 9.44615 6.10964 9.10756 6.45006 8.76804C6.62439 8.59417 6.79835 8.41732 6.96956 8.23954C6.74959 8.04123 6.43154 7.99907 6.07848 7.99907C5.87776 7.99888 5.66585 8.01269 5.45412 8.01903ZM10.9084 5.72837C11.2347 5.67856 11.4424 5.50805 11.7309 5.42C12.0171 5.31459 12.3208 5.2273 12.5967 5.11163C13.2227 4.97042 13.7602 4.73853 14.4581 4.671C14.4042 4.18298 14.0795 3.96993 13.7657 3.74588C13.7468 3.74426 13.7278 3.74377 13.7089 3.74439C13.6554 3.74439 13.6022 3.74571 13.5925 3.70224C13.0274 3.66178 12.4615 3.76781 11.9476 4.01042C11.8054 4.16151 11.675 4.32368 11.5577 4.49545C11.4992 4.70065 11.5027 4.96854 11.3414 5.06816C11.1064 5.11629 11.0692 4.96313 10.9084 4.93608C10.8307 5.21535 10.9273 5.3991 10.9084 5.72837ZM9.65326 5.42C9.66518 5.43212 9.71889 5.39873 9.69653 5.37578C9.69443 5.37401 9.69173 5.37314 9.68901 5.37336C9.6705 5.37317 9.63383 5.40059 9.65326 5.42ZM9.3068 5.15565H9.5233C9.49379 5.02507 9.47105 4.88609 9.35007 4.8471C9.29049 4.904 9.30735 5.0385 9.3068 5.1551V5.15565ZM18.1808 4.3186C18.5593 4.56485 18.912 4.83758 19.3931 4.97936C19.0906 4.20032 18.5177 3.69645 18.0078 3.12915C17.7104 2.99092 17.4976 2.76725 17.1852 2.64412C16.8723 2.47733 16.5368 2.35857 16.1897 2.29172H15.9301C15.9396 2.57149 15.925 2.85158 15.8866 3.12878C15.9653 3.25414 16.1398 3.28249 16.2329 3.39312C16.317 3.51814 16.3894 3.65085 16.4492 3.78954V4.36245C16.929 4.35517 17.3731 4.31151 17.8607 4.31132C17.9647 4.3117 18.0714 4.31375 18.1808 4.3186ZM10.1726 4.71502C10.1726 4.73946 10.2076 4.7652 10.2158 4.71502C10.2159 4.70823 10.2136 4.70164 10.2093 4.69641C10.2051 4.69119 10.1991 4.68768 10.1926 4.68649C10.1841 4.6863 10.1761 4.69413 10.1726 4.71502ZM15.7567 3.92199C15.6817 3.88386 15.621 3.82199 15.5836 3.7457C15.2307 3.80447 14.9039 3.82237 14.8909 3.43771C14.9092 3.17653 15.1475 3.14072 15.2373 2.95268C15.261 2.88869 15.1868 2.72527 15.2804 2.73235V2.33593C15.1847 2.30142 15.2889 2.0632 15.1074 2.1158C14.8522 2.13446 14.8 2.36093 14.6746 2.51223C14.598 2.59538 14.5031 2.65874 14.3977 2.69702C14.2922 2.73531 14.1793 2.74742 14.0684 2.73235C14.0552 2.62863 13.9182 2.65065 13.9388 2.51223C13.905 2.09603 14.2605 2.07589 14.2848 1.7192C14.276 1.58115 14.3142 1.39572 14.2416 1.32296C13.9472 1.20935 13.5817 1.37893 13.3758 1.49888C13.2438 1.77535 13.2119 2.15442 12.7709 2.1158C12.6845 2.07122 12.5859 2.03951 12.5544 1.93933C12.5317 1.74405 12.5615 1.54616 12.6407 1.3668C12.7377 1.34814 12.659 1.14947 12.6845 1.05844C12.7051 0.920016 12.6226 0.886247 12.5978 0.794277C12.4761 0.771157 12.3505 0.783717 12.2355 0.830485C12.1206 0.877254 12.021 0.956309 11.9485 1.05844C11.8935 1.11963 11.7819 1.14256 11.8187 1.23472C11.8636 1.39208 11.8782 1.55677 11.8618 1.71976C11.7362 1.75334 11.7496 1.92869 11.5588 1.89623C11.207 1.93093 11.177 1.63879 11.126 1.36736C11.0549 1.1289 10.9201 0.915293 10.7365 0.750441C10.6884 0.758471 10.639 0.749935 10.5962 0.726188C10.5465 0.698561 10.4882 0.691536 10.4334 0.706592C10.2197 0.740776 10.0141 0.815515 9.82741 0.926915C9.54267 1.24523 9.36125 1.64513 9.3079 2.07215C9.3079 2.80716 9.36161 3.4862 9.69763 3.87852C9.84794 3.86994 9.86261 3.72238 10.0005 3.70242C10.1404 3.65802 10.2877 3.64297 10.4334 3.65821C10.5299 3.75149 10.6802 3.7888 10.6934 3.96658C10.8444 4.01788 10.7766 4.29305 10.9097 4.363C11.2486 3.25396 12.2317 2.80063 13.7668 2.9092C13.9023 2.96237 14.0555 2.99725 14.1996 3.04147C14.2975 3.14012 14.4158 3.21533 14.5459 3.26161C14.6801 3.46308 14.8966 3.58023 14.9789 3.83431C15.0271 3.8707 15.0675 3.9169 15.0972 3.96999C15.127 4.02307 15.1456 4.08188 15.1519 4.14268C15.287 4.18148 15.1504 4.49714 15.3251 4.49508C15.6912 4.5309 15.7735 4.27719 15.7567 3.92199ZM4.97787 13.3936C4.91976 12.7339 5.96629 13.1324 5.67061 13.6139C5.59629 13.6461 5.51636 13.6626 5.4356 13.6626C5.34184 13.6681 5.24855 13.6455 5.16724 13.5977C5.08594 13.5498 5.02016 13.4788 4.97805 13.3934L4.97787 13.3936ZM9.13339 12.248C9.36821 12.0469 9.79588 12.1144 9.82613 12.4685C9.81825 12.6955 9.66665 12.7761 9.47985 12.8211C9.22816 12.769 9.09746 12.5931 9.13339 12.248ZM6.96919 12.072C6.90921 12.0237 6.8592 11.9637 6.82205 11.8956C6.7849 11.8275 6.76134 11.7526 6.7527 11.6752C6.78126 11.6564 6.80433 11.6302 6.81955 11.5992C6.83476 11.5682 6.84156 11.5337 6.83923 11.4992C6.92531 11.4537 7.01951 11.4264 7.1162 11.4188C7.21288 11.4112 7.31008 11.4235 7.402 11.4549C7.51364 11.6497 7.76349 11.704 7.70483 12.072C7.6695 12.135 7.61938 12.1881 7.55895 12.2266C7.49852 12.265 7.42967 12.2876 7.35855 12.2924H7.34388C7.14682 12.2926 7.08872 12.1508 6.96938 12.0719L6.96919 12.072ZM11.6437 10.2218C11.8466 9.97932 12.372 10.0998 12.4229 10.3978C12.44 10.474 12.4323 10.5539 12.4011 10.6253C12.3698 10.6968 12.3168 10.7561 12.2497 10.7944C12.236 10.7944 12.2226 10.7944 12.2094 10.7944C11.8336 10.7951 11.6697 10.5787 11.6444 10.2216L11.6437 10.2218ZM9.6089 10.3099C9.38893 10.095 9.4045 9.34448 9.91173 9.47264C9.96425 9.55023 10.0221 9.62392 10.085 9.69314V10.0457C9.99569 10.0577 10.0745 10.2407 9.95518 10.2218C9.97351 10.3435 9.79387 10.2631 9.78213 10.3537C9.7322 10.3175 9.67064 10.3018 9.60982 10.3099H9.6089ZM12.8556 7.13851C12.9991 7.154 13.0431 7.27021 13.1151 7.35882C13.116 7.56319 13.0556 7.76298 12.9421 7.93154C12.9155 8.13936 12.8222 8.27946 12.5958 8.28394C12.1428 8.13563 12.4657 7.17862 12.8565 7.13796L12.8556 7.13851ZM16.9676 7.40286C16.4753 7.26742 16.7412 6.05614 17.3572 6.38951C17.3534 6.41847 17.3601 6.44784 17.376 6.47213C17.392 6.49641 17.4161 6.51394 17.4439 6.5214C17.3748 6.90626 17.4157 7.40286 16.9686 7.40286H16.9676Z" fill="#D07E2B"/>
</svg>
