<svg width="16" height="17" viewBox="0 0 16 17" fill="none" xmlns="http://www.w3.org/2000/svg">
<path d="M14.4001 8.02324H14.3831L13.0357 4.99144C12.9098 4.70875 12.7047 4.46858 12.4452 4.29998C12.1857 4.13138 11.8829 4.04159 11.5734 4.04144H4.42678C4.11734 4.04161 3.81458 4.13142 3.5551 4.30001C3.29563 4.46861 3.09055 4.70876 2.96468 4.99144L1.61715 8.02324H1.60011C1.31731 8.02356 1.04619 8.13604 0.846217 8.33601C0.646247 8.53598 0.533765 8.80711 0.533447 9.08991V12.8232C0.533765 13.106 0.646247 13.3772 0.846217 13.5771C1.04619 13.7771 1.31731 13.8896 1.60011 13.8899V15.2414C1.60036 15.4535 1.68473 15.6569 1.8347 15.8069C1.98468 15.9568 2.18802 16.0412 2.40011 16.0414H4.26678C4.47888 16.0412 4.68222 15.9568 4.83219 15.8069C4.98217 15.6569 5.06653 15.4535 5.06678 15.2414V13.8899H10.9334V15.2414C10.9337 15.4535 11.0181 15.6569 11.168 15.8069C11.318 15.9568 11.5214 16.0412 11.7334 16.0414H13.6001C13.8122 16.0412 14.0156 15.9568 14.1655 15.8069C14.3155 15.6569 14.3999 15.4535 14.4001 15.2414V13.8899C14.6829 13.8896 14.954 13.7771 15.154 13.5771C15.354 13.3772 15.4665 13.106 15.4668 12.8232V9.08991C15.4665 8.80711 15.354 8.53598 15.154 8.33601C14.954 8.13604 14.6829 8.02356 14.4001 8.02324ZM3.93928 5.42478C3.98124 5.33053 4.04962 5.25046 4.13614 5.19426C4.22266 5.13806 4.32361 5.10813 4.42678 5.10811H11.5734C11.6766 5.10816 11.7775 5.1381 11.864 5.1943C11.9505 5.2505 12.0189 5.33055 12.0608 5.42478L13.2157 8.02321H2.78441L3.93928 5.42478ZM4.00011 14.9748H2.66678V13.8899H4.00011V14.9748ZM13.3334 14.9748H12.0001V13.8899H13.3334V14.9748ZM14.4001 12.8232H1.60011V9.08991H14.4001V12.8232Z" fill="#D07E2B"/>
<path d="M5.33341 10.4414H2.66675V11.5081H5.33341V10.4414Z" fill="#D07E2B"/>
<path d="M13.3334 10.4414H10.6667V11.5081H13.3334V10.4414Z" fill="#D07E2B"/>
<path d="M8 0L0 3.2121V4.36153L8 1.14947L16 4.36153V3.2121L8 0Z" fill="#D07E2B"/>
</svg>
