<svg width="14" height="17" viewBox="0 0 14 17" fill="none" xmlns="http://www.w3.org/2000/svg">
<path fill-rule="evenodd" clip-rule="evenodd" d="M1.02593 6.01301C0.881731 2.90704 3.42218 0 6.99973 0C10.5774 0 13.1178 2.90718 12.9735 6.01322C13.5039 6.29854 13.8837 6.80335 13.9765 7.42624C14.0877 8.16368 13.8008 8.82994 13.2007 9.25352C12.7521 9.57015 12.1775 9.7194 11.5547 9.7252L9.46423 13.4177L7.64515 16.6309C7.51635 16.8584 7.26874 17 6.99973 17C6.73072 17 6.48311 16.8584 6.35431 16.6309L4.53533 13.4179L2.44431 9.72435C1.8226 9.71762 1.24896 9.56852 0.800786 9.25253C0.200894 8.82966 -0.0865426 8.16453 0.0228388 7.42723C0.115524 6.80249 0.495492 6.298 1.02593 6.01301ZM2.49041 5.79917C2.77949 5.85202 3.03347 5.94793 3.24372 6.03504C3.35558 6.08137 3.45344 6.12375 3.54163 6.16193C3.80323 6.27519 3.97962 6.35156 4.1832 6.38519L4.18646 6.38573C4.53678 6.44515 4.74923 6.39614 5.14152 6.29048C5.15158 6.28777 5.1617 6.28504 5.1719 6.28229C5.59368 6.16855 6.1414 6.02083 6.99973 6.02083C7.85865 6.02083 8.4071 6.16826 8.82962 6.28185C8.83932 6.28445 8.84895 6.28705 8.85851 6.28961C9.25213 6.39529 9.46482 6.44433 9.81396 6.38557C10.0172 6.35136 10.1931 6.27525 10.4526 6.16295C10.5422 6.1242 10.6417 6.08113 10.7558 6.03399C10.9663 5.94698 11.2202 5.85146 11.5091 5.79888C11.532 3.51142 9.63163 1.41667 6.99973 1.41667C4.3677 1.41667 2.46731 3.5116 2.49041 5.79917ZM4.22442 9.91022L5.26439 11.7472L6.16353 10.5344C5.66735 10.4328 5.20451 10.2628 4.80505 10.116C4.75705 10.0984 4.70997 10.0811 4.66386 10.0643C4.50906 10.0079 4.36314 9.95612 4.22442 9.91022ZM7.83615 10.5344C8.33241 10.4327 8.79536 10.2627 9.19493 10.1159C9.24287 10.0984 9.28992 10.0811 9.33594 10.0643C9.49055 10.008 9.63634 9.95626 9.77492 9.91043L8.73514 11.7471L7.83615 10.5344ZM7.95276 13.129L6.9998 11.8437L6.04678 13.1292L6.99973 14.8125L7.95276 13.129ZM11.1584 7.41221C10.8718 7.53773 10.4719 7.71297 10.067 7.78111C9.37527 7.89749 8.89277 7.7695 8.46379 7.65425C8.45533 7.65198 8.44695 7.64972 8.43849 7.64745C8.05068 7.54325 7.65714 7.4375 6.99973 7.4375C6.34357 7.4375 5.95128 7.54325 5.56413 7.64766C5.55523 7.65 5.54634 7.65241 5.53744 7.65482C5.10821 7.77042 4.62585 7.89841 3.93302 7.78118C3.5254 7.71354 3.1244 7.53766 2.83759 7.41186C2.7732 7.3836 2.71456 7.35788 2.66289 7.33649C2.32555 7.19674 2.12533 7.15332 1.93717 7.18484C1.67954 7.22805 1.51263 7.39713 1.47842 7.62769C1.44353 7.86293 1.52085 8.00473 1.66907 8.10928C1.84991 8.23671 2.21307 8.35203 2.78989 8.29168C3.68436 8.19804 4.52184 8.49795 5.18392 8.73913C5.2059 8.74721 5.22771 8.75514 5.24936 8.763C5.94143 9.01538 6.47076 9.20833 6.99973 9.20833C7.52885 9.20833 8.05855 9.01524 8.75095 8.76286C8.77249 8.755 8.79411 8.74714 8.81594 8.7392C9.47805 8.49802 10.3156 8.19804 11.2096 8.29168L11.2113 8.29182C11.7882 8.35352 12.1512 8.23813 12.3318 8.1107C12.4798 8.00622 12.5568 7.86427 12.5214 7.6296L12.5211 7.62783C12.487 7.39805 12.3193 7.22797 12.0623 7.18484C11.8735 7.15317 11.6724 7.1966 11.3355 7.33592C11.2832 7.35753 11.2238 7.3836 11.1584 7.41221Z" fill="#D07E2B"/>
</svg>
