<svg width="22" height="23" viewBox="0 0 22 23" fill="none" xmlns="http://www.w3.org/2000/svg">
<path d="M19.1153 7.31132L15.5981 6.20312V12.6245L21.5608 14.6463L21.6035 11.1848L19.3225 10.4311C19.2033 10.3972 19.1153 10.2874 19.1153 10.1575L19.1153 7.31132Z" fill="#D07E2B"/>
<path d="M21.6415 8.10776L19.6843 7.49084V9.95205L21.6107 10.5883L21.6415 8.10776Z" fill="#D07E2B"/>
<path d="M9.29662 8.10634L9.21948 14.3801L15.0289 12.6187L15.0287 6.20911L14.2274 6.47459C13.2265 8.45246 11.9074 10.4454 11.8969 10.4617L11.8975 10.4624C11.8109 10.5936 11.6346 10.6299 11.5034 10.5433C11.4646 10.5175 11.4337 10.4836 11.4124 10.4459C11.3169 10.301 10.6142 9.22738 9.86999 7.91777L9.29662 8.10634Z" fill="#D07E2B"/>
<path d="M4.60704 6.8088L2.68628 6.20325V10.097L4.60704 9.46192V6.8088Z" fill="#D07E2B"/>
<path d="M8.73001 8.10776L5.17584 6.98767V9.66774C5.17584 9.79828 5.08853 9.90745 4.96867 9.94136L2.68579 10.6956V11.8484L8.65231 14.3408L8.73001 8.10776Z" fill="#D07E2B"/>
<path d="M2.68628 16.6045L4.52988 17.2138V19.6811L2.68628 19.1327V16.6045Z" fill="#D07E2B"/>
<path d="M5.09916 19.8498V17.0085C5.09916 16.8786 5.01185 16.7688 4.892 16.7349L2.68628 16.0057V12.4646L8.64498 14.9539L8.57158 20.8831L5.09916 19.8498Z" fill="#D07E2B"/>
<path d="M21.5387 16.43L19.1762 17.2106C19.057 17.2446 18.969 17.3544 18.969 17.4843V20.1355L15.5974 19.1328V13.2249L21.5531 15.2443L21.5387 16.43Z" fill="#D07E2B"/>
<path d="M19.5388 20.3045V17.6892L21.5311 17.0309L21.4841 20.8831L19.5388 20.3045Z" fill="#D07E2B"/>
<path d="M15.0289 19.1094L9.13965 20.8578L9.21187 14.975L15.0291 13.2111L15.0289 19.1094Z" fill="#D07E2B"/>
<path fill-rule="evenodd" clip-rule="evenodd" d="M14.7658 3.31295C14.7658 2.45513 14.4181 1.67837 13.8565 1.11674C13.2941 0.554417 12.518 0.207397 11.6602 0.207397C10.8025 0.207397 10.0257 0.555099 9.46403 1.11674C8.90171 1.67906 8.55469 2.45517 8.55469 3.31295C8.55469 4.7519 10.7379 8.34248 11.6609 9.78334C12.3907 8.64189 14.7658 4.80979 14.7658 3.31295H14.7658ZM12.8971 3.30227C12.8971 3.98564 12.343 4.53967 11.6597 4.53967C10.9763 4.53967 10.4223 3.98564 10.4223 3.30227C10.4223 2.61891 10.9763 2.06488 11.6597 2.06488C12.343 2.06471 12.8971 2.61891 12.8971 3.30227Z" fill="#D07E2B"/>
<path d="M0.0203975 22.753C0.0193803 22.7535 0.0183631 22.754 0.0170069 22.7543C0.0156507 22.7547 0.0142944 22.755 0.0129382 22.755C0.00920858 22.755 0.00632679 22.754 0.00412298 22.7516C0.00174957 22.7494 0.000732422 22.7465 0.000732422 22.7428C0.000732422 22.7392 0.00174961 22.7364 0.00412298 22.734C0.00632683 22.7318 0.00920893 22.7306 0.0129382 22.7306C0.0142944 22.7306 0.0156507 22.7309 0.0170069 22.7313C0.0183631 22.7318 0.0193803 22.7323 0.0203975 22.7326V22.7374C0.0193803 22.7365 0.0183631 22.736 0.0170069 22.736C0.0159897 22.7357 0.0149726 22.7353 0.0136163 22.7353C0.0117515 22.7353 0.0102258 22.736 0.00886933 22.7374C0.00785214 22.7387 0.00751311 22.7406 0.00751311 22.7428C0.00751311 22.7452 0.00785214 22.7469 0.00886933 22.7482C0.0102256 22.7496 0.0117513 22.7503 0.0136163 22.7503H0.0170069C0.0183631 22.7499 0.0193803 22.7492 0.0203975 22.7482V22.753Z" fill="#D07E2B"/>
<path d="M0.0378929 22.7425C0.0378929 22.7421 0.0375389 22.7418 0.0371848 22.7418C0.0366537 22.7414 0.0361226 22.7411 0.0357685 22.7411C0.0338211 22.7411 0.0324049 22.7418 0.0315197 22.7432C0.0309886 22.7443 0.0308116 22.7453 0.0308116 22.7467V22.7552H0.0251465V22.7375H0.0308116V22.7404C0.0316967 22.7389 0.0324049 22.7381 0.032936 22.7375C0.0338211 22.7372 0.0350604 22.7368 0.0364767 22.7368H0.0371848H0.0378929V22.7425Z" fill="#D07E2B"/>
<path d="M0.0581824 22.746V22.7481H0.0447276C0.0450816 22.7496 0.0456128 22.7506 0.0461439 22.751C0.047029 22.7515 0.0482683 22.7517 0.0496845 22.7517C0.0511008 22.7517 0.052163 22.7515 0.0532252 22.751C0.0546415 22.7506 0.0560578 22.7501 0.0574741 22.7496V22.7545C0.0560578 22.7545 0.0546415 22.7549 0.0532252 22.7552C0.052163 22.7556 0.0511008 22.7559 0.0496845 22.7559C0.0457898 22.7559 0.0429571 22.7551 0.0411869 22.7531C0.0397706 22.7513 0.0390625 22.7492 0.0390625 22.7467C0.0390625 22.7435 0.0397706 22.7411 0.0411869 22.7396C0.0429573 22.7379 0.0456128 22.7368 0.0489766 22.7368C0.0518092 22.7368 0.0539338 22.7379 0.0553496 22.7396C0.05712 22.7411 0.0581824 22.7432 0.0581824 22.746ZM0.0525173 22.7446C0.0525173 22.7432 0.0519862 22.7423 0.0511011 22.7418C0.0505699 22.7414 0.0498618 22.7411 0.0489766 22.7411C0.0479144 22.7411 0.0470293 22.7414 0.0461441 22.7418C0.045613 22.7423 0.0450819 22.7432 0.0447278 22.7446H0.0525173Z" fill="#D07E2B"/>
<path d="M0.0697531 22.7467C0.0686909 22.7467 0.0678057 22.7473 0.0669206 22.7481C0.0663894 22.7487 0.0662124 22.7492 0.0662124 22.7496C0.0662124 22.7501 0.0663894 22.7506 0.0669206 22.751C0.0672746 22.7515 0.0679827 22.7517 0.069045 22.7517C0.0704612 22.7517 0.0713464 22.7515 0.0718775 22.751C0.0727627 22.7501 0.0732938 22.7492 0.0732938 22.7481V22.7467H0.0697531ZM0.0782507 22.7453V22.7552H0.0732936V22.7524C0.0722313 22.7538 0.0713462 22.7549 0.070461 22.7552C0.0693988 22.7556 0.0683366 22.7559 0.0669203 22.7559C0.0649729 22.7559 0.0633796 22.7554 0.0619631 22.7545C0.0609009 22.7531 0.0605469 22.7515 0.0605469 22.7496C0.0605469 22.7478 0.061255 22.7464 0.0626713 22.7453C0.0640876 22.7444 0.066212 22.7439 0.0690443 22.7439H0.0732931V22.7432C0.0732931 22.7423 0.072762 22.7418 0.0718768 22.7418C0.0713457 22.7414 0.0701065 22.7411 0.0683362 22.7411H0.0647955C0.0637332 22.7411 0.0628481 22.7414 0.0619629 22.7418V22.7375H0.0655036C0.0669199 22.7372 0.0679821 22.7368 0.0690443 22.7368C0.072762 22.7368 0.0750633 22.7375 0.0761257 22.7389C0.0775419 22.7404 0.0782507 22.7425 0.0782507 22.7453Z" fill="#D07E2B"/>
<path d="M0.0895523 22.7321V22.7377H0.0952174V22.7413H0.0895523V22.7491V22.7512H0.0916767H0.0945093V22.7554H0.0902605C0.087782 22.7554 0.0860116 22.7551 0.0845954 22.754C0.0835331 22.7531 0.0831791 22.7515 0.0831791 22.7491V22.7413H0.0810547V22.7377H0.0831791V22.7321L0.0895523 22.7321Z" fill="#D07E2B"/>
<path d="M0.1158 22.746V22.7481H0.102345C0.102699 22.7496 0.10323 22.7506 0.103761 22.751C0.104646 22.7515 0.105885 22.7517 0.107302 22.7517C0.108718 22.7517 0.10978 22.7515 0.110842 22.751C0.112259 22.7506 0.113675 22.7501 0.115091 22.7496V22.7545C0.113675 22.7545 0.112259 22.7549 0.110842 22.7552C0.10978 22.7556 0.108718 22.7559 0.107302 22.7559C0.103407 22.7559 0.100574 22.7551 0.0988041 22.7531C0.0973878 22.7513 0.0966797 22.7492 0.0966797 22.7467C0.0966797 22.7435 0.0973878 22.7411 0.0988041 22.7396C0.100574 22.7379 0.10323 22.7368 0.106594 22.7368C0.109426 22.7368 0.111551 22.7379 0.112967 22.7396C0.114737 22.7411 0.1158 22.7432 0.1158 22.746ZM0.110135 22.7446C0.110135 22.7432 0.109603 22.7423 0.108718 22.7418C0.108187 22.7414 0.107479 22.7411 0.106594 22.7411C0.105532 22.7411 0.104646 22.7414 0.103761 22.7418C0.10323 22.7423 0.102699 22.7432 0.102345 22.7446H0.110135Z" fill="#D07E2B"/>
<path d="M0.130804 22.7394V22.7306H0.136229V22.7543H0.130804V22.7516C0.130295 22.753 0.129448 22.754 0.128092 22.7543C0.127074 22.7547 0.126227 22.755 0.125379 22.755C0.123006 22.755 0.12131 22.7542 0.119954 22.7523C0.118598 22.7506 0.11792 22.7486 0.11792 22.7462C0.11792 22.7431 0.118598 22.7408 0.119954 22.7394C0.12131 22.7377 0.123006 22.7367 0.125379 22.7367C0.126227 22.7367 0.127074 22.737 0.128092 22.7374C0.129448 22.7379 0.130295 22.7386 0.130804 22.7394ZM0.127413 22.7509C0.128261 22.7509 0.128939 22.7506 0.129448 22.7496C0.130295 22.7487 0.130804 22.7475 0.130804 22.7462C0.130804 22.7445 0.130295 22.7431 0.129448 22.7421C0.128939 22.7413 0.128261 22.7408 0.127413 22.7408C0.126057 22.7408 0.124871 22.7413 0.124023 22.7421C0.123514 22.7431 0.123345 22.7445 0.123345 22.7462C0.123345 22.7475 0.123514 22.7487 0.124023 22.7496C0.124871 22.7506 0.126057 22.7509 0.127413 22.7509Z" fill="#D07E2B"/>
<path d="M0.161403 22.7509C0.16276 22.7509 0.163607 22.7506 0.164116 22.7496C0.164455 22.7487 0.164794 22.7475 0.164794 22.7462C0.164794 22.7445 0.164455 22.7431 0.164116 22.7421C0.163607 22.7413 0.16276 22.7408 0.161403 22.7408C0.160047 22.7408 0.15903 22.7413 0.158691 22.7421C0.158182 22.7431 0.158013 22.7445 0.158013 22.7462C0.158013 22.7475 0.158182 22.7487 0.158691 22.7496C0.15903 22.7506 0.160047 22.7509 0.161403 22.7509ZM0.158013 22.7394C0.15886 22.7386 0.159708 22.7379 0.160725 22.7374C0.161573 22.737 0.16242 22.7367 0.163438 22.7367C0.165642 22.7367 0.167506 22.7377 0.168863 22.7394C0.170219 22.7408 0.170897 22.7431 0.170897 22.7462C0.170897 22.7486 0.170219 22.7506 0.168863 22.7523C0.167506 22.7542 0.165642 22.755 0.163438 22.755C0.16242 22.755 0.161573 22.7547 0.160725 22.7543C0.159708 22.754 0.15886 22.753 0.158013 22.7516V22.7543H0.152588V22.7306H0.158013V22.7394Z" fill="#D07E2B"/>
<path d="M0.173096 22.7374H0.178521L0.182589 22.749L0.186658 22.7374H0.192761L0.185301 22.7557C0.184284 22.7579 0.183436 22.7593 0.182589 22.7598C0.181572 22.7607 0.180215 22.7612 0.17852 22.7612H0.17513V22.7571H0.177164H0.179198C0.179537 22.7571 0.180046 22.7564 0.180555 22.7551L0.173096 22.7374Z" fill="#D07E2B"/>
<path d="M0.227456 22.753C0.225591 22.7535 0.224065 22.754 0.222709 22.7543C0.221352 22.7547 0.219488 22.755 0.217284 22.755C0.213554 22.755 0.210672 22.754 0.208469 22.7516C0.206095 22.7494 0.205078 22.7465 0.205078 22.7428C0.205078 22.7392 0.206095 22.7364 0.208469 22.734C0.210673 22.7318 0.213894 22.7306 0.217962 22.7306C0.219658 22.7306 0.221014 22.7309 0.222031 22.7313C0.223387 22.7318 0.224743 22.7323 0.2261 22.7326V22.7374C0.224743 22.7365 0.223387 22.736 0.222031 22.736C0.221014 22.7357 0.219997 22.7353 0.21864 22.7353C0.216267 22.7353 0.214572 22.736 0.213215 22.7374C0.212198 22.7387 0.211859 22.7406 0.211859 22.7428C0.211859 22.7452 0.212198 22.7469 0.213215 22.7482C0.214572 22.7496 0.216267 22.7503 0.21864 22.7503H0.219997C0.220336 22.7503 0.220844 22.7501 0.221353 22.7496V22.7455H0.217962V22.7414H0.227456V22.753Z" fill="#D07E2B"/>
<path d="M0.244924 22.7425C0.244924 22.7421 0.24457 22.7418 0.244216 22.7418C0.243685 22.7414 0.243154 22.7411 0.2428 22.7411C0.240852 22.7411 0.239436 22.7418 0.238551 22.7432C0.23802 22.7443 0.237843 22.7453 0.237843 22.7467V22.7552H0.232178V22.7375H0.237843V22.7404C0.238728 22.7389 0.239436 22.7381 0.239967 22.7375C0.240852 22.7372 0.242092 22.7368 0.243508 22.7368H0.244216H0.244924V22.7425Z" fill="#D07E2B"/>
<path d="M0.255544 22.7467C0.254482 22.7467 0.253597 22.7473 0.252712 22.7481C0.25218 22.7487 0.252003 22.7492 0.252003 22.7496C0.252003 22.7501 0.25218 22.7506 0.252712 22.751C0.253066 22.7515 0.253774 22.7517 0.254836 22.7517C0.256252 22.7517 0.257137 22.7515 0.257669 22.751C0.258554 22.7501 0.259085 22.7492 0.259085 22.7481V22.7467H0.255544ZM0.264042 22.7453V22.7552H0.259085V22.7524C0.258022 22.7538 0.257137 22.7549 0.256252 22.7552C0.25519 22.7556 0.254128 22.7559 0.252711 22.7559C0.250764 22.7559 0.249171 22.7554 0.247754 22.7545C0.246692 22.7531 0.246338 22.7515 0.246338 22.7496C0.246338 22.7478 0.247046 22.7464 0.248462 22.7453C0.249879 22.7444 0.252003 22.7439 0.254835 22.7439H0.259084V22.7432C0.259084 22.7423 0.258553 22.7418 0.257668 22.7418C0.257137 22.7414 0.255898 22.7411 0.254127 22.7411H0.250586C0.249524 22.7411 0.248639 22.7414 0.247754 22.7418V22.7375H0.251295C0.252711 22.7372 0.253773 22.7368 0.254835 22.7368C0.258553 22.7368 0.260854 22.7375 0.261917 22.7389C0.263333 22.7404 0.264042 22.7425 0.264042 22.7453Z" fill="#D07E2B"/>
<path d="M0.274224 22.7517V22.7606H0.268799V22.7375H0.274224V22.7395C0.275071 22.7387 0.275919 22.738 0.276936 22.7375C0.277784 22.7372 0.278631 22.7368 0.279649 22.7368C0.281852 22.7368 0.283717 22.7378 0.285074 22.7395C0.28643 22.7409 0.287108 22.7433 0.287108 22.7463C0.287108 22.7487 0.28643 22.7507 0.285074 22.7524C0.283717 22.7543 0.281852 22.7551 0.279649 22.7551C0.278631 22.7551 0.277784 22.7548 0.276936 22.7544C0.275919 22.7541 0.275071 22.7531 0.274224 22.7517ZM0.277614 22.7409C0.276258 22.7409 0.275241 22.7414 0.274902 22.7422C0.274393 22.7433 0.274224 22.7446 0.274224 22.7463C0.274224 22.7477 0.274393 22.7489 0.274902 22.7497C0.275241 22.7507 0.276258 22.7511 0.277614 22.7511C0.278971 22.7511 0.279818 22.7507 0.280327 22.7497C0.280666 22.7489 0.281005 22.7477 0.281005 22.7463C0.281005 22.7446 0.280666 22.7433 0.280327 22.7422C0.279818 22.7414 0.278971 22.7409 0.277614 22.7409Z" fill="#D07E2B"/>
<path d="M0.309135 22.7442V22.7543H0.303032V22.7462V22.7435C0.303032 22.7431 0.302693 22.7426 0.302354 22.7421C0.302354 22.7418 0.302015 22.7414 0.301676 22.7414C0.301676 22.7411 0.301167 22.7408 0.300319 22.7408C0.299302 22.7408 0.298455 22.7413 0.297607 22.7421C0.297098 22.7431 0.296929 22.7445 0.296929 22.7462V22.7543H0.291504V22.7306H0.296929V22.7394C0.297776 22.7386 0.298624 22.7379 0.299641 22.7374C0.300489 22.737 0.301337 22.7367 0.302354 22.7367C0.304558 22.7367 0.306083 22.7374 0.307101 22.7387C0.308457 22.7401 0.309135 22.7419 0.309135 22.7442Z" fill="#D07E2B"/>
<path d="M0.313721 22.7374H0.319146V22.7543H0.313721V22.7374ZM0.313721 22.7306H0.319146V22.7347H0.313721V22.7306Z" fill="#D07E2B"/>
<path d="M0.328883 22.7459L0.32251 22.7374H0.328175L0.332424 22.7424L0.335964 22.7374H0.342337L0.335964 22.7459L0.342337 22.7551H0.335964L0.332424 22.7495L0.328175 22.7551H0.32251L0.328883 22.7459Z" fill="#D07E2B"/>
<path d="M0.358841 22.7375V22.7425C0.357424 22.7416 0.356008 22.7411 0.354592 22.7411H0.351759H0.348927C0.348396 22.7411 0.348219 22.7416 0.348219 22.7425C0.348219 22.743 0.348396 22.7435 0.348927 22.7439H0.351759H0.352467C0.3553 22.7444 0.35707 22.7451 0.358133 22.746C0.359018 22.7466 0.359549 22.748 0.359549 22.7503C0.359549 22.7517 0.358841 22.7531 0.357424 22.7545C0.356362 22.7554 0.354592 22.7559 0.351759 22.7559C0.350343 22.7559 0.348927 22.7556 0.347511 22.7552C0.346448 22.7552 0.345386 22.7551 0.34397 22.7545V22.7503C0.344855 22.7508 0.34574 22.7513 0.346802 22.7517H0.351051H0.353176C0.35353 22.7513 0.353884 22.7508 0.353884 22.7503C0.353884 22.7494 0.35353 22.7489 0.353176 22.7489C0.353176 22.7489 0.352645 22.7487 0.351759 22.7481H0.350343C0.347865 22.7478 0.346094 22.7473 0.344678 22.7467C0.343616 22.7458 0.343262 22.7444 0.343262 22.7425C0.343262 22.7407 0.34397 22.7393 0.345386 22.7382C0.346802 22.7373 0.348927 22.7368 0.351759 22.7368C0.352644 22.7368 0.353529 22.7372 0.354592 22.7375L0.358841 22.7375Z" fill="#D07E2B"/>
<path d="M0.376883 22.759V22.7619H0.360596V22.759H0.376883Z" fill="#D07E2B"/>
<path d="M0.393173 22.7496H0.38368L0.382323 22.7544H0.376221L0.385036 22.7313H0.391817L0.399954 22.7544H0.39453L0.393173 22.7496ZM0.385036 22.7462H0.391139L0.388426 22.7367L0.385036 22.7462Z" fill="#D07E2B"/>
<path d="M0.416067 22.7425C0.416067 22.7421 0.415713 22.7418 0.415359 22.7418C0.414828 22.7414 0.414296 22.7411 0.413942 22.7411C0.411995 22.7411 0.410579 22.7418 0.409694 22.7432C0.409162 22.7443 0.408985 22.7453 0.408985 22.7467V22.7552H0.40332V22.7375H0.408985V22.7404C0.409871 22.7389 0.410579 22.7381 0.41111 22.7375C0.411995 22.7372 0.413234 22.7368 0.41465 22.7368H0.415359H0.416067V22.7425Z" fill="#D07E2B"/>
<path d="M0.425246 22.7321V22.7377H0.430911V22.7413H0.425246V22.7491V22.7512H0.42737H0.430203V22.7554H0.425954C0.423475 22.7554 0.421705 22.7551 0.420289 22.754C0.419227 22.7531 0.418872 22.7515 0.418872 22.7491V22.7413H0.416748V22.7377H0.418872V22.7321L0.425246 22.7321Z" fill="#D07E2B"/>
<path d="M0.0128841 22.762V22.7654H0.0101717C0.00915449 22.7654 0.00847642 22.7657 0.00813734 22.766V22.7674V22.7687H0.0128843V22.7721H0.00813734V22.7857H0.00271245V22.7721H0V22.7687H0.00271245V22.7674C0.00271245 22.7657 0.0030515 22.7643 0.00406867 22.7633C0.0049163 22.7625 0.00644204 22.762 0.00881567 22.762H0.0128841Z" fill="#D07E2B"/>
<path d="M0.0286156 22.7739C0.0286156 22.7735 0.0282616 22.7731 0.0279075 22.7731C0.0273763 22.7728 0.0268453 22.7724 0.0264912 22.7724C0.0245438 22.7724 0.0231275 22.7731 0.0222424 22.7746C0.0217113 22.7756 0.0215342 22.7767 0.0215342 22.7781V22.7866H0.0158691V22.7689H0.0215342V22.7717C0.0224194 22.7703 0.0231275 22.7694 0.0236586 22.7689C0.0245438 22.7685 0.0257831 22.7682 0.0271993 22.7682H0.0279075H0.0286156V22.7739Z" fill="#D07E2B"/>
<path d="M0.0396993 22.7724C0.038283 22.7724 0.0370438 22.773 0.0361586 22.7739C0.0356275 22.7744 0.0354505 22.7758 0.0354505 22.7781C0.0354505 22.7795 0.0356275 22.7808 0.0361586 22.7816C0.0370438 22.7827 0.038283 22.7831 0.0396993 22.7831C0.0411156 22.7831 0.0420007 22.7827 0.0425318 22.7816C0.043417 22.7808 0.0439481 22.7795 0.0439481 22.7781C0.0439481 22.7758 0.043417 22.7744 0.0425318 22.7739C0.0420007 22.773 0.0411156 22.7724 0.0396993 22.7724ZM0.0396993 22.7682C0.0425318 22.7682 0.0448332 22.7693 0.0467807 22.771C0.048551 22.7724 0.0496132 22.7749 0.0496132 22.7781C0.0496132 22.7806 0.048551 22.7827 0.0467807 22.7845C0.0448333 22.7864 0.0425318 22.7873 0.0396993 22.7873C0.0363356 22.7873 0.0336802 22.7864 0.0319096 22.7845C0.0304933 22.7827 0.0297852 22.7806 0.0297852 22.7781C0.0297852 22.7749 0.0304933 22.7724 0.0319096 22.771C0.0336799 22.7693 0.0363354 22.7682 0.0396993 22.7682Z" fill="#D07E2B"/>
<path d="M0.0683305 22.7716C0.0691781 22.7707 0.0700258 22.7701 0.071043 22.7695C0.0718906 22.7687 0.0727383 22.7682 0.0737554 22.7682C0.0759593 22.7682 0.077485 22.7689 0.0785024 22.7702C0.0798586 22.7716 0.0805367 22.7734 0.0805367 22.7756V22.7858H0.074434V22.777V22.7763C0.074434 22.775 0.0740949 22.7741 0.0737558 22.7736C0.0737558 22.7728 0.0732473 22.7723 0.0723996 22.7723C0.0713825 22.7723 0.0705348 22.7728 0.0696872 22.7736C0.0691786 22.7746 0.0690091 22.776 0.0690091 22.7777V22.7858H0.0635842V22.777C0.0635842 22.7753 0.0632451 22.7741 0.0629061 22.7736C0.0629061 22.7728 0.0623975 22.7723 0.0615498 22.7723C0.0601936 22.7723 0.0591765 22.7728 0.0588374 22.7736C0.0583288 22.7746 0.0581593 22.776 0.0581593 22.7777V22.7858H0.0527344V22.7689H0.0581593V22.7709L0.0601936 22.7689C0.0610412 22.7685 0.0622279 22.7682 0.0635842 22.7682C0.0644318 22.7682 0.0652794 22.7687 0.0662966 22.7695C0.0671442 22.7701 0.0678219 22.7707 0.0683305 22.7716Z" fill="#D07E2B"/>
<path d="M0.102736 22.7634V22.7691H0.108401V22.7726H0.102736V22.7804V22.7825H0.10486H0.107693V22.7868H0.103444C0.100966 22.7868 0.0991952 22.7864 0.097779 22.7854C0.0967167 22.7845 0.0963627 22.7829 0.0963627 22.7804V22.7726H0.0942383V22.7691H0.0963627V22.7634L0.102736 22.7634Z" fill="#D07E2B"/>
<path d="M0.128959 22.7755V22.7857H0.122856V22.7776V22.7748C0.122856 22.7745 0.122517 22.774 0.122178 22.7735C0.122178 22.7732 0.121839 22.7728 0.1215 22.7728C0.1215 22.7725 0.120991 22.7721 0.120144 22.7721C0.119126 22.7721 0.118279 22.7726 0.117431 22.7735C0.116923 22.7745 0.116753 22.7759 0.116753 22.7776V22.7857H0.111328V22.762H0.116753V22.7708C0.117601 22.7699 0.118448 22.7693 0.119465 22.7687C0.120313 22.7684 0.121161 22.7681 0.122178 22.7681C0.124382 22.7681 0.125908 22.7687 0.126925 22.7701C0.128281 22.7715 0.128959 22.7733 0.128959 22.7755Z" fill="#D07E2B"/>
<path d="M0.151444 22.7774V22.7795H0.137989C0.138343 22.7809 0.138874 22.782 0.139406 22.7824C0.140291 22.7829 0.14153 22.7831 0.142946 22.7831C0.144363 22.7831 0.145425 22.7829 0.146487 22.7824C0.147903 22.782 0.149319 22.7815 0.150736 22.7809V22.7859C0.149319 22.7859 0.147903 22.7862 0.146487 22.7866C0.145425 22.787 0.144363 22.7873 0.142946 22.7873C0.139052 22.7873 0.136219 22.7864 0.134449 22.7845C0.133032 22.7827 0.132324 22.7806 0.132324 22.7781C0.132324 22.7749 0.133032 22.7724 0.134449 22.771C0.136219 22.7693 0.138874 22.7682 0.142238 22.7682C0.145071 22.7682 0.147196 22.7693 0.148611 22.771C0.150382 22.7724 0.151444 22.7746 0.151444 22.7774ZM0.145779 22.776C0.145779 22.7746 0.145248 22.7737 0.144363 22.7731C0.143832 22.7728 0.143124 22.7724 0.142238 22.7724C0.141176 22.7724 0.140291 22.7728 0.139406 22.7731C0.138875 22.7737 0.138344 22.7746 0.13799 22.776H0.145779Z" fill="#D07E2B"/>
<path d="M0.165771 22.7627H0.172553L0.18069 22.7783V22.7627H0.186793V22.7858H0.180012L0.171196 22.7702V22.7858H0.165771V22.7627Z" fill="#D07E2B"/>
<path d="M0.200588 22.7724C0.199172 22.7724 0.197932 22.773 0.197047 22.7739C0.196516 22.7744 0.196339 22.7758 0.196339 22.7781C0.196339 22.7795 0.196516 22.7808 0.197047 22.7816C0.197932 22.7827 0.199172 22.7831 0.200588 22.7831C0.202004 22.7831 0.202889 22.7827 0.203421 22.7816C0.204306 22.7808 0.204837 22.7795 0.204837 22.7781C0.204837 22.7758 0.204306 22.7744 0.203421 22.7739C0.202889 22.773 0.202004 22.7724 0.200588 22.7724ZM0.200588 22.7682C0.203421 22.7682 0.205722 22.7693 0.207669 22.771C0.20944 22.7724 0.210502 22.7749 0.210502 22.7781C0.210502 22.7806 0.20944 22.7827 0.207669 22.7845C0.205722 22.7864 0.203421 22.7873 0.200588 22.7873C0.197224 22.7873 0.194569 22.7864 0.192798 22.7845C0.191382 22.7827 0.190674 22.7806 0.190674 22.7781C0.190674 22.7749 0.191382 22.7724 0.192798 22.771C0.194569 22.7693 0.197224 22.7682 0.200588 22.7682Z" fill="#D07E2B"/>
<path d="M0.213623 22.7794V22.7688H0.219288V22.7702V22.7745V22.7766V22.7801V22.7815C0.219642 22.7815 0.219996 22.7819 0.219996 22.7823H0.222121C0.223006 22.7823 0.223714 22.7821 0.224245 22.7815C0.22513 22.7807 0.225661 22.7792 0.225661 22.7773V22.7688H0.231326V22.7865H0.225661V22.7837C0.224599 22.7851 0.223714 22.7861 0.222829 22.7865C0.221767 22.7869 0.220704 22.7872 0.219288 22.7872C0.217341 22.7872 0.215924 22.7865 0.215039 22.7851C0.213977 22.7837 0.213623 22.7819 0.213623 22.7794Z" fill="#D07E2B"/>
<path d="M0.254495 22.776V22.7866H0.248122V22.7781V22.7753C0.248122 22.7749 0.247768 22.7744 0.247414 22.7739C0.247414 22.7735 0.24706 22.7731 0.246706 22.7731C0.246706 22.7728 0.246175 22.7724 0.24529 22.7724C0.244228 22.7724 0.243342 22.773 0.242457 22.7739C0.241926 22.7749 0.241749 22.7763 0.241749 22.7781V22.7866H0.236084V22.7689H0.241749V22.771C0.242634 22.7701 0.243519 22.7694 0.244582 22.7689C0.245467 22.7685 0.246352 22.7682 0.247414 22.7682C0.249716 22.7682 0.251309 22.7689 0.252371 22.7703C0.253788 22.7717 0.254495 22.7737 0.254495 22.776Z" fill="#D07E2B"/>
<path d="M0.269287 22.7627H0.279459C0.282171 22.7627 0.284206 22.7634 0.285562 22.7647C0.287257 22.7661 0.288274 22.7681 0.288274 22.7708C0.288274 22.7732 0.287257 22.7749 0.285562 22.7763C0.284206 22.7773 0.282171 22.7776 0.279459 22.7776H0.27539V22.7858H0.269288L0.269287 22.7627ZM0.27539 22.7674V22.7735H0.27878C0.279628 22.7735 0.280306 22.7734 0.280815 22.7729C0.281662 22.7725 0.282171 22.7718 0.282171 22.7708C0.282171 22.7695 0.281662 22.7686 0.280815 22.7681C0.280306 22.7678 0.279628 22.7674 0.27878 22.7674L0.27539 22.7674Z" fill="#D07E2B"/>
<path d="M0.304983 22.7739C0.304983 22.7735 0.304629 22.7731 0.304275 22.7731C0.303744 22.7728 0.303212 22.7724 0.302858 22.7724C0.300911 22.7724 0.299495 22.7731 0.29861 22.7746C0.298078 22.7756 0.297901 22.7767 0.297901 22.7781V22.7866H0.292236V22.7689H0.297901V22.7717C0.298787 22.7703 0.299495 22.7694 0.300026 22.7689C0.300911 22.7685 0.30215 22.7682 0.303567 22.7682H0.304275H0.304983V22.7739Z" fill="#D07E2B"/>
<path d="M0.316311 22.7724C0.314894 22.7724 0.313655 22.773 0.31277 22.7739C0.312239 22.7744 0.312062 22.7758 0.312062 22.7781C0.312062 22.7795 0.312239 22.7808 0.31277 22.7816C0.313655 22.7827 0.314894 22.7831 0.316311 22.7831C0.317727 22.7831 0.318612 22.7827 0.319143 22.7816C0.320028 22.7808 0.320559 22.7795 0.320559 22.7781C0.320559 22.7758 0.320028 22.7744 0.319143 22.7739C0.318612 22.773 0.317727 22.7724 0.316311 22.7724ZM0.316311 22.7682C0.319143 22.7682 0.321445 22.7693 0.323392 22.771C0.325162 22.7724 0.326225 22.7749 0.326225 22.7781C0.326225 22.7806 0.325162 22.7827 0.323392 22.7845C0.321445 22.7864 0.319143 22.7873 0.316311 22.7873C0.312947 22.7873 0.310292 22.7864 0.308521 22.7845C0.307105 22.7827 0.306396 22.7806 0.306396 22.7781C0.306396 22.7749 0.307105 22.7724 0.308521 22.771C0.310291 22.7693 0.312947 22.7682 0.316311 22.7682Z" fill="#D07E2B"/>
<path d="M0.329319 22.7687H0.334743V22.785C0.334743 22.7872 0.334065 22.7891 0.332709 22.7904C0.331692 22.7918 0.330166 22.7925 0.327962 22.7925H0.325928V22.7884H0.326606C0.327453 22.7884 0.328132 22.7881 0.32864 22.7877C0.328979 22.7877 0.329318 22.7867 0.329318 22.785L0.329319 22.7687ZM0.329319 22.762H0.334743V22.766H0.329319V22.762Z" fill="#D07E2B"/>
<path d="M0.357743 22.7774V22.7795H0.344288C0.344642 22.7809 0.345173 22.782 0.345704 22.7824C0.34659 22.7829 0.347829 22.7831 0.349245 22.7831C0.350661 22.7831 0.351724 22.7829 0.352786 22.7824C0.354202 22.782 0.355618 22.7815 0.357035 22.7809V22.7859C0.355618 22.7859 0.354202 22.7862 0.352786 22.7866C0.351724 22.787 0.350661 22.7873 0.349245 22.7873C0.34535 22.7873 0.342518 22.7864 0.340747 22.7845C0.339331 22.7827 0.338623 22.7806 0.338623 22.7781C0.338623 22.7749 0.339331 22.7724 0.340747 22.771C0.342518 22.7693 0.345173 22.7682 0.348537 22.7682C0.35137 22.7682 0.353494 22.7693 0.35491 22.771C0.356681 22.7724 0.357743 22.7746 0.357743 22.7774ZM0.352078 22.776C0.352078 22.7746 0.351547 22.7737 0.350662 22.7731C0.35013 22.7728 0.349422 22.7724 0.348537 22.7724C0.347475 22.7724 0.34659 22.7728 0.345705 22.7731C0.345174 22.7737 0.344642 22.7746 0.344288 22.776H0.352078Z" fill="#D07E2B"/>
<path d="M0.37615 22.7689V22.7739C0.374734 22.7735 0.373672 22.7731 0.373318 22.7731C0.372787 22.7728 0.371902 22.7724 0.370485 22.7724C0.369069 22.7724 0.36783 22.773 0.366945 22.7739C0.365882 22.7749 0.365528 22.7763 0.365528 22.7781C0.365528 22.7795 0.365882 22.7808 0.366945 22.7816C0.36783 22.7827 0.369069 22.7831 0.370485 22.7831C0.371902 22.7831 0.372787 22.7829 0.373318 22.7824C0.374203 22.782 0.375088 22.7816 0.37615 22.7816V22.7859C0.374734 22.7864 0.373495 22.7866 0.37261 22.7866C0.372079 22.787 0.37137 22.7873 0.370485 22.7873C0.366591 22.7873 0.363758 22.7864 0.361988 22.7845C0.360571 22.7827 0.359863 22.7806 0.359863 22.7781C0.359863 22.7749 0.360571 22.7724 0.361988 22.771C0.363758 22.7693 0.36659 22.7682 0.370485 22.7682C0.37137 22.7682 0.372079 22.7685 0.37261 22.7689L0.37615 22.7689Z" fill="#D07E2B"/>
<path d="M0.386427 22.7634V22.7691H0.392092V22.7726H0.386427V22.7804V22.7825H0.388552H0.391384V22.7868H0.387135C0.384657 22.7868 0.382887 22.7864 0.38147 22.7854C0.380408 22.7845 0.380054 22.7829 0.380054 22.7804V22.7726H0.37793V22.7691H0.380054V22.7634L0.386427 22.7634Z" fill="#D07E2B"/>
</svg>
