<svg width="11" height="14" viewBox="0 0 11 14" fill="none" xmlns="http://www.w3.org/2000/svg">
<path fill-rule="evenodd" clip-rule="evenodd" d="M10.2861 3.53701L9.49595 4.32714C11.5531 6.50521 11.4879 9.92928 9.3494 12.0275C7.21087 14.1257 3.78618 14.1257 1.64765 12.0275C-0.490874 9.92928 -0.556041 6.50521 1.5011 4.32714L0.710965 3.53701L1.48846 2.75924L2.33372 3.6045C3.10589 3.05728 4.00697 2.72003 4.94867 2.62577V1.49857H3.84897V0.398865H7.14808V1.49857H6.04838V2.62577C6.99009 2.72003 7.89116 3.05728 8.66334 3.6045L9.5086 2.75924L10.2861 3.53701ZM1.09972 8.09699C1.09972 10.5264 3.06913 12.4958 5.49853 12.4958C7.9268 12.4931 9.89462 10.5253 9.89735 8.09699C9.89735 5.66759 7.92793 3.69817 5.49853 3.69817C3.06913 3.69817 1.09972 5.66759 1.09972 8.09699Z" fill="#D07E2B"/>
<path d="M5.49851 4.79791V8.09702H2.1994C2.1994 9.91907 3.67646 11.3961 5.49851 11.3961C7.32056 11.3961 8.79763 9.91907 8.79763 8.09702C8.79763 6.27498 7.32056 4.79791 5.49851 4.79791Z" fill="#D07E2B"/>
</svg>
