<svg width="20" height="20" viewBox="0 0 20 20" fill="none" xmlns="http://www.w3.org/2000/svg">
<path d="M10.2392 9.73035C10.7265 9.73035 11.2029 9.5872 11.6081 9.31899C12.0133 9.05079 12.3292 8.66958 12.5156 8.22357C12.7021 7.77756 12.7509 7.28679 12.6559 6.81331C12.5608 6.33982 12.3261 5.90491 11.9815 5.56355C11.6369 5.22218 11.1979 4.98972 10.7199 4.89553C10.2419 4.80135 9.74648 4.84969 9.29623 5.03443C8.84599 5.21918 8.46116 5.53203 8.19041 5.93342C7.91966 6.33482 7.77515 6.80674 7.77515 7.28949C7.77515 7.93685 8.03475 8.55769 8.49684 9.01544C8.95894 9.47319 9.58568 9.73035 10.2392 9.73035ZM10.2392 5.54602C10.5873 5.54602 10.9276 5.64828 11.217 5.83985C11.5064 6.03143 11.732 6.30372 11.8652 6.6223C11.9984 6.94087 12.0333 7.29143 11.9654 7.62963C11.8975 7.96783 11.7298 8.27848 11.4837 8.52231C11.2376 8.76614 10.924 8.93219 10.5825 8.99946C10.2411 9.06674 9.88725 9.03221 9.56565 8.90025C9.24404 8.76829 8.96917 8.54483 8.77577 8.25811C8.58238 7.9714 8.47916 7.63432 8.47916 7.28949C8.47916 6.8271 8.66459 6.38364 8.99465 6.05667C9.32472 5.72971 9.77239 5.54602 10.2392 5.54602Z" fill="white"/>
<path d="M10.5912 10.4277H9.88719C8.86026 10.4277 7.87538 10.8318 7.14923 11.5512C6.42308 12.2705 6.01514 13.2461 6.01514 14.2634C6.01514 14.3558 6.05222 14.4445 6.11824 14.5099C6.18425 14.5753 6.27378 14.6121 6.36714 14.6121H14.1112C14.2046 14.6121 14.2941 14.5753 14.3601 14.5099C14.4262 14.4445 14.4632 14.3558 14.4632 14.2634C14.4632 13.2461 14.0553 12.2705 13.3292 11.5512C12.603 10.8318 11.6181 10.4277 10.5912 10.4277ZM6.74027 13.9147C6.82682 13.1478 7.19559 12.4393 7.7761 11.9248C8.35662 11.4102 9.10818 11.1255 9.88719 11.1251H10.5912C11.3702 11.1255 12.1218 11.4102 12.7023 11.9248C13.2828 12.4393 13.6516 13.1478 13.7381 13.9147H6.74027Z" fill="white"/>
<path d="M10.2514 3.84514e-05C8.33157 -0.0053726 6.45333 0.560431 4.85601 1.62548L4.99282 1.19342H4.99268C5.07649 0.938682 5.01807 0.658429 4.83923 0.458489C4.66052 0.258415 4.38856 0.168923 4.12607 0.223865C3.86342 0.278672 3.65003 0.469312 3.56621 0.724193L2.63382 3.61154C2.55917 3.86018 2.61911 4.12977 2.79227 4.32318C2.93504 4.49744 3.14817 4.59887 3.37347 4.59984H3.44812L6.46284 4.28905H6.46271C6.72924 4.26185 6.96094 4.09452 7.07069 3.8502C7.1803 3.60573 7.15131 3.32142 6.99452 3.10429C6.83774 2.88701 6.57688 2.77005 6.31049 2.79724L5.71372 2.85635V2.85621C7.14853 1.91132 8.84292 1.43848 10.5597 1.50412C12.2764 1.56962 13.9299 2.17026 15.2884 3.22181C16.647 4.27351 17.6428 5.72346 18.1366 7.36908C18.6306 9.01463 18.5976 10.7734 18.0425 12.3994C17.4874 14.0252 16.4379 15.437 15.0409 16.4369C13.6439 17.437 11.9692 17.9752 10.251 17.9764C9.9834 17.9764 9.73616 18.1192 9.60239 18.351C9.46864 18.5828 9.46864 18.8683 9.60239 19.1C9.73614 19.3317 9.98341 19.4745 10.251 19.4745C12.8336 19.4745 15.3101 18.4486 17.1362 16.6225C18.9622 14.7965 19.9881 12.3197 19.9881 9.73742C19.9881 7.15514 18.9622 4.67837 17.1362 2.8523C15.3101 1.02624 12.8333 0.000333054 10.251 0.000333054L10.2514 3.84514e-05Z" fill="white"/>
<path d="M7.32354 17.448C6.90953 17.2922 6.50841 17.1042 6.12394 16.8855C5.95162 16.7866 5.74712 16.7603 5.55535 16.8122C5.3636 16.8639 5.20029 16.9899 5.10137 17.1622C5.00244 17.3344 4.97608 17.5389 5.02797 17.7307C5.07986 17.9224 5.20571 18.0857 5.37804 18.1846C5.83215 18.4452 6.30598 18.6696 6.79519 18.856C6.87983 18.887 6.96932 18.9028 7.05937 18.9027C7.29413 18.9013 7.51459 18.7901 7.65514 18.6021C7.79569 18.4141 7.83995 18.1712 7.77488 17.9457C7.70967 17.7203 7.54261 17.5384 7.32353 17.4543L7.32354 17.448Z" fill="white"/>
<path d="M3.27699 14.1538C3.17292 13.9814 3.00365 13.8582 2.80759 13.812C2.61141 13.7658 2.40494 13.8005 2.23484 13.9084C2.0646 14.0162 1.94499 14.1881 1.9031 14.3853C1.86119 14.5823 1.90046 14.7879 2.01215 14.9558C2.29062 15.3934 2.60238 15.809 2.94454 16.199C3.07385 16.3559 3.26172 16.4536 3.46458 16.4694C3.66743 16.4851 3.86805 16.4176 4.02014 16.2824C4.17221 16.1472 4.26281 15.9559 4.271 15.7526C4.27905 15.5492 4.20412 15.3514 4.06343 15.2044C3.77511 14.8746 3.51216 14.5235 3.27699 14.1538Z" fill="white"/>
<path d="M2.23918 11.7232C2.13054 11.295 2.05881 10.8583 2.02468 10.4179C2.00303 10.1508 1.84056 9.91561 1.59844 9.80088C1.35633 9.686 1.07148 9.70917 0.851006 9.86137C0.630536 10.0137 0.508161 10.2721 0.529803 10.539C0.572398 11.0631 0.657591 11.5828 0.784684 12.093C0.849617 12.3529 1.04817 12.5582 1.30568 12.6319C1.5632 12.7056 1.84043 12.6363 2.03302 12.4501C2.2256 12.2639 2.30413 11.9892 2.2392 11.7293L2.23918 11.7232Z" fill="white"/>
<path d="M1.32513 8.3327C1.38299 8.34769 1.44251 8.3549 1.50231 8.35449C1.66992 8.35379 1.83254 8.29718 1.96421 8.19354C2.09602 8.09003 2.1894 7.94532 2.22964 7.78258C2.3355 7.35287 2.4748 6.93207 2.64603 6.52384C2.75037 6.27742 2.71541 5.99396 2.55404 5.78027C2.39282 5.5666 2.12976 5.45533 1.86418 5.48807C1.59848 5.52095 1.37053 5.69314 1.26618 5.93956C1.06305 6.42088 0.898762 6.91773 0.775012 7.42513C0.727281 7.61854 0.758501 7.82291 0.86173 7.99315C0.964958 8.1634 1.13173 8.28564 1.32515 8.33267L1.32513 8.3327Z" fill="white"/>
</svg>
